<svg
    xmlns="http://www.w3.org/2000/svg"
    viewBox="0 0 512 512"
    id="vector">
    <path
        id="path"
        d="M 304 40 L 400 40 L 400 88 L 304 88 Z"
        fill="#a9bfd1"/>
    <path
        id="path_1"
        d="M 352 40 L 400 40 L 400 88 L 352 88 Z"
        fill="#8da3b2"/>
    <path
        id="path_2"
        d="M 328 40 L 344 40 L 344 80 L 328 80 Z"
        fill="#5d717c"/>
    <path
        id="path_3"
        d="M 360 40 L 376 40 L 376 80 L 360 80 Z"
        fill="#5d717c"/>
    <path
        id="path_4"
        d="M 423.451 400 L 280.551 400 C 276.242 400 272.008 398.866 268.276 396.712 C 264.544 394.557 261.444 391.458 259.289 387.726 C 257.135 383.994 256 379.76 256 375.451 L 256 128 C 256 115.274 261.061 103.057 270.059 94.059 C 279.057 85.061 291.274 80 304 80 L 400 80 C 412.726 80 424.943 85.061 433.941 94.059 C 442.939 103.057 448 115.274 448 128 L 448 375.451 C 448 381.959 445.412 388.208 440.81 392.81 C 436.208 397.412 429.959 400 423.451 400 Z"
        fill="#88d0ef"/>
    <path
        id="path_5"
        d="M 400 80 L 368 80 C 380.726 80 392.943 85.061 401.941 94.059 C 410.939 103.057 416 115.274 416 128 L 416 375.451 C 416 381.959 413.412 388.208 408.81 392.81 C 404.208 397.412 397.959 400 391.451 400 L 423.451 400 C 429.959 400 436.208 397.412 440.81 392.81 C 445.412 388.208 448 381.959 448 375.451 L 448 128 C 448 115.274 442.939 103.057 433.941 94.059 C 424.943 85.061 412.726 80 400 80 Z"
        fill="#55abc9"/>
    <path
        id="path_6"
        d="M 256 224 C 255.936 247.697 262.319 270.817 274.227 290.014 C 286.135 309.212 302.963 323.514 322.276 330.851 C 341.59 338.188 362.41 338.188 381.724 330.851 C 401.037 323.514 417.865 309.212 429.773 290.014 C 441.681 270.817 448.064 247.697 448 224 C 448.064 200.303 441.681 177.183 429.773 157.986 C 417.865 138.788 401.037 124.486 381.724 117.149 C 362.41 109.812 341.59 109.812 322.276 117.149 C 302.963 124.486 286.135 138.788 274.227 157.986 C 262.319 177.183 255.936 200.303 256 224 Z"
        fill="#f6f6e7"/>
    <path
        id="path_7"
        d="M 415.948 140.474 C 415.979 141.646 416 142.82 416 144 C 416 205.856 373.019 256 320 256 C 295.436 256 273.031 245.231 256.052 227.526 C 257.649 287.75 299.992 336 352 336 C 405.019 336 448 285.856 448 224 C 448 190.8 435.616 160.984 415.948 140.474 Z"
        fill="#cccbb2"/>
    <path
        id="path_8"
        d="M 288 216 C 288 230.846 294.747 245.1 306.745 255.598 C 318.743 266.096 335.033 272 352 272 C 368.967 272 385.257 266.096 397.255 255.598 C 409.253 245.1 416 230.846 416 216 C 416 201.154 409.253 186.9 397.255 176.402 C 385.257 165.904 368.967 160 352 160 C 335.033 160 318.743 165.904 306.745 176.402 C 294.747 186.9 288 201.154 288 216 Z"
        fill="#f8c09c"/>
    <path
        id="path_9"
        d="M 407.772 188.542 C 405.128 217.343 377.6 240 344 240 C 320.06 240 299.2 228.491 288.228 211.458 C 288.09 212.958 288 214.469 288 216 C 288 246.928 316.654 272 352 272 C 387.346 272 416 246.928 416 216 C 415.971 206.245 413.113 196.705 407.772 188.542 Z"
        fill="#e2ab8d"/>
    <path
        id="path_10"
        d="M 376 176 L 376 175.319 C 376 171.226 374.922 167.204 372.876 163.66 C 370.829 160.115 367.885 157.171 364.341 155.124 C 360.796 153.078 356.774 152 352.681 152 C 351.157 152 349.66 151.599 348.34 150.837 C 347.021 150.075 345.925 148.979 345.163 147.66 C 344.401 146.34 344 144.843 344 143.319 L 344 128 L 330.5 138.8 C 326.04 142.369 322.676 147.124 320.796 152.518 C 318.915 157.911 318.594 163.728 319.868 169.296 C 321.142 174.864 323.961 179.961 328 184 L 342.111 184 C 353.875 184 365.478 181.261 376 176 Z"
        fill="#ffd884"/>
    <path
        id="path_11"
        d="M 360 200 L 376 200 L 376 216 L 360 216 Z"
        fill="#8c5511"/>
    <path
        id="path_12"
        d="M 320 200 L 336 200 L 336 216 L 320 216 Z"
        fill="#8c5511"/>
    <path
        id="path_13"
        d="M 120 48 L 152 48 L 152 96 L 120 96 Z"
        fill="#a9bfd1"/>
    <path
        id="path_14"
        d="M 136 48 L 152 48 L 152 96 L 136 96 Z"
        fill="#8da3b2"/>
    <path
        id="path_15"
        d="M 104 88 L 168 88 L 168 135.997 L 104 135.997 Z"
        fill="#f6f6e7"/>
    <path
        id="path_16"
        d="M 136 88 L 168 88 L 168 135.997 L 136 135.997 Z"
        fill="#cccbb2"/>
    <path
        id="path_17"
        d="M 208 56 L 104 56 L 104 24 L 208 32 Z"
        fill="#f6f6e7"/>
    <path
        id="path_18"
        d="M 192 30.769 C 192 33.793 191.204 36.765 189.692 39.385 C 188.18 42.004 186.004 44.18 183.385 45.692 C 180.765 47.204 177.793 48 174.769 48 L 104 48 L 104 56 L 208 56 L 208 32 Z"
        fill="#cccbb2"/>
    <path
        id="path_19"
        d="M 456 448 L 56 448 L 39.344 281.438 L 472.656 281.438 Z"
        fill="#83a603"/>
    <path
        id="path_20"
        d="M 108.929 120 L 163.07 120 C 172.36 120 181.489 122.446 189.535 127.091 C 197.581 131.736 204.263 138.419 208.909 146.464 C 213.554 154.51 216 163.639 216 172.929 L 216 280 L 56 280 L 56 172.929 C 56 158.897 61.58 145.425 71.503 135.503 C 81.425 125.58 94.897 120 108.929 120 Z"
        fill="#dd95c1"/>
    <path
        id="path_21"
        d="M 163.07 120 L 131.07 120 C 140.361 120 149.489 122.446 157.535 127.091 C 165.581 131.736 172.264 138.419 176.909 146.465 C 181.554 154.511 184 163.639 184 172.93 L 184 280 L 216 280 L 216 172.93 C 216 163.639 213.554 154.511 208.909 146.465 C 204.264 138.419 197.581 131.736 189.535 127.091 C 181.489 122.446 172.361 120 163.07 120 Z"
        fill="#c17ca9"/>
    <path
        id="path_22"
        d="M 39.344 281.438 L 41.6 304 L 435.856 304 C 432.788 334.681 418.417 363.152 395.555 383.842 C 372.693 404.532 342.934 415.999 312.1 416 L 52.8 416 L 56 448 L 456 448 L 472.656 281.438 Z"
        fill="#365902"/>
    <path
        id="path_23"
        d="M 330.482 389.3 L 325.607 392.136 C 321.263 394.718 317.481 398.146 314.486 402.217 C 311.492 406.288 309.346 410.92 308.175 415.836 C 307.01 420.726 304.879 425.335 301.908 429.39 C 298.938 433.446 295.186 436.867 290.875 439.453 L 280.238 445.835 C 276.38 448.15 273.596 451.907 272.505 456.271 C 271.414 460.636 272.102 465.261 274.417 469.119 C 275.949 471.673 278.128 473.78 280.732 475.225 C 283.336 476.671 286.276 477.406 289.254 477.356 C 292.233 477.306 295.146 476.473 297.7 474.94 L 308.549 468.43 C 317.129 463.283 327.413 461.752 337.12 464.179 L 337.832 464.357 C 342.64 465.559 347.639 465.802 352.541 465.073 C 357.443 464.343 362.154 462.655 366.404 460.105 L 371.224 457.213 Z"
        fill="#f6f6e7"/>
    <path
        id="path_24"
        d="M 363.228 443.91 L 358.408 446.802 C 354.158 449.352 349.447 451.04 344.545 451.77 C 339.643 452.499 334.644 452.256 329.836 451.054 L 329.124 450.876 C 319.417 448.449 309.133 449.98 300.553 455.127 L 289.7 461.636 C 287.03 463.238 283.969 464.074 280.856 464.051 C 277.742 464.029 274.694 463.149 272.047 461.509 C 272.219 464.195 273.032 466.801 274.417 469.109 C 275.949 471.663 278.128 473.77 280.732 475.215 C 283.336 476.661 286.276 477.396 289.254 477.346 C 292.233 477.295 295.146 476.462 297.7 474.929 L 308.549 468.42 C 317.129 463.273 327.413 461.742 337.12 464.169 L 337.832 464.347 C 342.64 465.549 347.639 465.792 352.541 465.063 C 357.443 464.333 362.154 462.645 366.404 460.095 L 371.224 457.203 Z"
        fill="#cccbb2"/>
    <path
        id="path_25"
        d="M 208 288 L 208 246.422 C 208 241.986 206.905 237.618 204.811 233.706 C 202.718 229.795 199.691 226.461 196 224 C 192.309 221.539 189.282 218.205 187.189 214.294 C 185.095 210.382 184 206.014 184 201.578 L 184 184 C 184 179.758 182.313 175.686 179.314 172.686 C 176.314 169.687 172.242 168 168 168 C 163.758 168 159.686 169.687 156.686 172.686 C 153.687 175.686 152 179.758 152 184 L 152 201.578 C 152 206.014 150.905 210.382 148.811 214.294 C 146.718 218.205 143.691 221.539 140 224 C 136.309 226.461 133.282 229.795 131.189 233.706 C 129.095 237.618 128 241.986 128 246.422 L 128 288 L 120.111 295.889 C 115.003 300.997 110.951 307.061 108.187 313.735 C 105.423 320.408 104 327.562 104 334.785 L 104 464.666 C 104 470.852 106.46 476.791 110.834 481.166 C 115.209 485.54 121.148 488 127.334 488 L 208.666 488 C 214.852 488 220.791 485.54 225.166 481.166 C 229.54 476.791 232 470.852 232 464.666 L 232 334.785 C 232.001 327.561 230.578 320.407 227.814 313.732 C 225.05 307.058 220.997 300.993 215.889 295.885 Z"
        fill="#a9e9ff"/>
    <path
        id="path_26"
        d="M 215.889 295.889 L 208 288 L 208 246.422 C 208 241.986 206.905 237.618 204.811 233.706 C 202.718 229.795 199.691 226.461 196 224 C 192.309 221.539 189.282 218.205 187.189 214.294 C 185.095 210.382 184 206.014 184 201.578 L 184 184 C 184 179.758 182.313 175.686 179.314 172.686 C 176.314 169.687 172.242 168 168 168 C 163.758 168 159.686 169.687 156.686 172.686 C 153.687 175.686 152 179.758 152 184 L 152 185.578 C 152 190.014 153.095 194.382 155.189 198.294 C 157.282 202.205 160.309 205.539 164 208 C 167.691 210.461 170.718 213.795 172.811 217.706 C 174.905 221.618 176 225.986 176 230.422 L 176 272 L 183.889 279.889 C 188.997 284.997 193.049 291.061 195.813 297.735 C 198.577 304.408 200 311.562 200 318.785 L 200 448.666 C 200 452.762 198.922 456.786 196.874 460.333 C 194.826 463.88 191.88 466.826 188.333 468.874 C 184.786 470.922 180.762 472 176.666 472 L 105.183 472 C 106.725 476.656 109.696 480.709 113.672 483.581 C 117.648 486.453 122.43 487.999 127.334 488 L 208.666 488 C 214.852 488 220.791 485.54 225.166 481.166 C 229.54 476.791 232 470.852 232 464.666 L 232 334.785 C 232 327.562 230.577 320.408 227.813 313.735 C 225.049 307.061 220.997 300.997 215.889 295.889 Z"
        fill="#88d0ef"/>
    <path
        id="path_27"
        d="M 176 344 L 208 344 L 208 360 L 176 360 Z"
        fill="#55abc9"/>
    <path
        id="path_28"
        d="M 176 376 L 208 376 L 208 392 L 176 392 Z"
        fill="#55abc9"/>
    <path
        id="path_29"
        d="M 176 408 L 208 408 L 208 424 L 176 424 Z"
        fill="#55abc9"/>
    <path
        id="path_30"
        d="M 176 440 L 208 440 L 208 456 L 176 456 Z"
        fill="#55abc9"/>
    <path
        id="path_31"
        d="M 24 240 L 488 240 L 488 288 L 24 288 Z"
        fill="#dbed91"/>
    <path
        id="path_32"
        d="M 488 288 L 24 288 L 24 272 L 432 272 C 440.484 272 448.629 268.626 454.627 262.627 C 460.626 256.629 464 248.484 464 240 L 488 240 Z"
        fill="#d0dd83"/>
    <path
        id="path_33"
        d="M 439.138 317.505 C 422.677 313.39 405.237 315.985 390.688 324.715 C 376.139 333.444 365.642 347.611 361.527 364.072 C 357.412 380.533 360.007 397.972 368.736 412.522 C 377.466 427.071 391.633 437.568 408.093 441.683 C 424.554 445.798 441.994 443.203 456.543 434.474 C 471.093 425.744 481.59 411.578 485.705 395.117 C 488.43 384.219 488.238 372.793 485.148 361.993 C 482.058 351.192 476.179 341.393 468.103 333.585 C 460.027 325.776 450.036 320.229 439.138 317.505 Z M 454.661 387.356 C 452.603 395.586 447.355 402.67 440.08 407.034 C 432.806 411.399 424.086 412.697 415.855 410.639 C 407.625 408.582 400.542 403.333 396.177 396.059 C 391.812 388.784 390.514 380.064 392.572 371.834 C 394.629 363.604 399.878 356.52 407.152 352.155 C 414.427 347.79 423.147 346.493 431.377 348.55 C 436.826 349.912 441.822 352.685 445.86 356.59 C 449.898 360.494 452.838 365.393 454.382 370.794 C 455.927 376.194 456.023 381.907 454.661 387.356 Z"
        fill="#ffbf41"/>
    <path
        id="path_34"
        d="M 408.833 407.973 C 402.545 404.696 397.521 399.42 394.555 392.979 C 391.59 386.538 390.847 379.291 392.446 372.382 C 394.044 365.474 397.894 359.289 403.387 354.805 C 408.881 350.321 415.711 347.788 422.8 347.606 C 415.823 343.97 407.745 343.032 400.121 344.972 C 392.497 346.911 385.849 351.596 381.459 358.124 C 377.068 364.652 375.235 372.575 376.313 380.368 C 377.391 388.161 381.305 395.289 387.303 400.38 C 393.301 405.471 400.97 408.176 408.835 407.973 Z"
        fill="#f2b705"/>
    <path
        id="path_35"
        d="M 439.138 317.505 C 436.179 316.769 433.171 316.244 430.138 315.932 C 444.754 321.323 456.91 331.869 464.309 345.578 C 471.709 359.287 473.854 375.236 470.34 390.413 C 466.827 405.59 457.89 418.974 445.218 428.035 C 432.547 437.097 416.993 441.228 401.495 439.647 C 403.657 440.443 405.86 441.123 408.095 441.684 C 424.535 445.739 441.93 443.108 456.436 434.373 C 470.941 425.638 481.404 411.494 485.51 395.067 C 489.617 378.641 487.041 361.237 478.353 346.704 C 469.664 332.171 455.553 321.664 439.139 317.505 Z"
        fill="#f2b705"/>
    <path
        id="path_36"
        d="M 327.223 351.474 L 327.223 351.474 C 329.776 349.943 332.687 349.111 335.664 349.061 C 338.64 349.012 341.578 349.747 344.18 351.192 C 346.783 352.638 348.959 354.743 350.49 357.296 L 408.642 454.253 C 410.173 456.806 411.006 459.717 411.055 462.693 C 411.105 465.67 410.37 468.607 408.925 471.21 C 407.48 473.812 405.375 475.989 402.822 477.52 L 402.822 477.52 C 400.269 479.051 397.358 479.884 394.381 479.933 C 391.405 479.983 388.467 479.248 385.865 477.802 C 383.263 476.357 381.086 474.252 379.555 471.699 L 321.403 374.741 C 319.872 372.188 319.039 369.277 318.99 366.301 C 318.94 363.324 319.675 360.387 321.12 357.784 C 322.565 355.182 324.67 353.005 327.223 351.474 Z"
        fill="#f2b705"/>
    <path
        id="path_37"
        d="M 409.064 454.3 L 350.855 357.285 C 349.408 354.872 347.384 352.858 344.964 351.423 C 342.544 349.988 339.805 349.179 336.994 349.067 L 385.734 430.3 C 387.845 433.815 388.612 437.98 387.891 442.017 C 387.169 446.054 385.008 449.696 381.81 452.262 C 378.611 454.829 374.588 456.151 370.491 455.981 L 379.96 471.762 C 381.779 474.884 384.548 477.345 387.862 478.784 C 391.176 480.224 394.865 480.568 398.388 479.766 C 401.911 478.964 405.088 477.058 407.452 474.327 C 409.817 471.595 411.249 468.178 411.538 464.577 C 411.827 460.975 410.959 457.374 409.06 454.3 Z"
        fill="#db9e07"/>
    <path
        id="path_38"
        d="M 208 246.422 C 208 241.986 206.905 237.618 204.811 233.706 C 202.718 229.795 199.691 226.461 196 224 C 192.309 221.539 189.282 218.205 187.189 214.294 C 185.095 210.382 184 206.014 184 201.578 L 184 184 C 184 179.758 182.313 175.686 179.314 172.686 C 176.314 169.687 172.242 168 168 168 C 163.758 168 159.686 169.687 156.686 172.686 C 153.687 175.686 152 179.758 152 184 L 152 201.578 C 152 206.014 150.905 210.382 148.811 214.294 C 146.718 218.205 143.691 221.539 140 224 C 136.309 226.461 133.282 229.795 131.189 233.706 C 129.095 237.618 128 241.986 128 246.422 L 128 264 L 208 264 Z"
        fill="#ffd884"/>
    <path
        id="path_39"
        d="M 196 224 C 192.309 221.539 189.282 218.205 187.189 214.294 C 185.095 210.382 184 206.014 184 201.578 L 184 184 C 184.005 180.238 182.681 176.592 180.263 173.709 C 177.845 170.827 174.485 168.889 170.779 168.24 C 167.073 167.59 163.254 168.27 160 170.158 C 162.431 171.559 164.451 173.577 165.855 176.007 C 167.26 178.436 167.999 181.194 168 184 L 168 201.578 C 168 206.014 169.095 210.382 171.189 214.294 C 173.282 218.205 176.309 221.539 180 224 C 183.691 226.461 186.718 229.795 188.811 233.706 C 190.905 237.618 192 241.986 192 246.422 L 192 264 L 208 264 L 208 246.422 C 208 241.986 206.905 237.618 204.811 233.706 C 202.718 229.795 199.691 226.461 196 224 Z"
        fill="#ffbf41"/>
    <path
        id="path_40"
        d="M 112 256 L 224 256 L 224 288 L 112 288 Z"
        fill="#f6f6e7"/>
    <path
        id="path_41"
        d="M 224 288 L 112 288 L 112 272 L 192 272 C 196.242 272 200.314 270.313 203.314 267.314 C 206.313 264.314 208 260.242 208 256 L 224 256 Z"
        fill="#cccbb2"/>
</svg>
