<svg
    xmlns="http://www.w3.org/2000/svg"
    viewBox="0 0 512 512"
    id="vector">
    <path
        id="path"
        d="M 359.523 93.785 C 348.246 40.297 300.437 0 243.332 0 C 177.871 0 124.613 52.945 124.613 118.02 L 124.613 154.2 C 124.672 154.196 124.726 154.192 124.781 154.192 C 134.133 154.192 142.508 161.965 146.121 173.993 L 146.465 175.141 L 147.531 174.598 C 150.281 173.196 153.094 172.18 155.867 171.535 L 155.867 131.035 L 154.5 131.035 C 152.207 131.035 150.344 129.176 150.344 126.887 L 150.344 65.914 C 150.344 63.629 152.207 61.766 154.5 61.766 L 176.695 61.766 C 192.754 42.996 216.664 31.067 243.332 31.067 C 291.559 31.067 330.793 70.075 330.793 118.02 L 330.793 122.954 C 333.82 120.306 337.289 118.618 340.957 118.153 L 341.891 118.032 L 341.832 117.094 C 341.801 116.617 341.777 116.141 341.777 115.656 C 341.777 104.941 349.39 95.968 359.523 93.785 Z M 359.523 93.785"
        fill="#ffc987"/>
    <path
        id="path_1"
        d="M 150.344 65.914 C 150.344 63.629 152.207 61.766 154.5 61.766 L 154.742 61.766 C 173.695 27.172 209.551 2.993 251.203 0.266 C 248.601 0.098 245.976 0 243.332 0 C 177.871 0 124.613 52.945 124.613 118.02 L 124.613 154.2 C 124.672 154.196 124.726 154.192 124.781 154.192 C 130.679 154.192 136.191 157.294 140.363 162.602 L 140.363 118.02 C 140.363 101.192 143.929 85.18 150.343 70.68 Z M 150.344 65.914"
        fill="#ffaf68"/>
    <path
        id="path_2"
        d="M 343.078 118 C 352.219 118 360.519 125.551 364.226 137.23 L 364.796 139.027 C 364.968 139.023 365.14 139.019 365.308 139.015 L 366.085 137.355 C 370.679 127.531 376.921 118.66 384.636 110.992 C 385.351 110.281 386.089 109.605 386.824 108.922 C 383.914 99.293 374.929 92.274 364.297 92.274 C 351.309 92.274 340.777 102.743 340.777 115.657 C 340.777 116.505 340.824 117.337 340.914 118.161 C 341.629 118.067 342.352 118.001 343.078 118.001 Z M 343.078 118"
        fill="#bb0a7e"/>
    <path
        id="path_3"
        d="M 86.633 169.508 C 91.676 169.508 97.086 170.977 102.278 173.758 L 103.333 174.321 L 103.7 173.184 C 107.055 162.836 114.055 155.789 122.009 154.442 C 120.13 144.821 111.614 137.551 101.384 137.551 C 89.775 137.551 80.364 146.906 80.364 158.449 C 80.364 162.597 81.594 166.453 83.692 169.703 C 84.645 169.586 85.622 169.508 86.633 169.508 Z M 86.633 169.508"
        fill="#bb0a7e"/>
    <path
        id="path_4"
        d="M 340.434 464.777 L 373.239 302.007 C 361.872 306.82 349.516 309.382 336.852 309.382 C 336.852 309.382 336.852 309.382 336.848 309.382 C 321.258 309.382 305.789 305.429 292.118 297.952 L 291.481 297.604 L 290.954 298.104 C 287.579 301.284 282.946 302.963 277.563 302.963 C 272.524 302.963 267.122 301.494 261.938 298.721 L 260.883 298.155 L 260.516 299.296 C 256.778 310.835 248.504 318.288 239.434 318.288 C 230.086 318.288 221.707 310.515 218.098 298.483 L 217.754 297.338 L 216.688 297.881 C 212.469 300.026 208.012 301.326 203.793 301.639 L 203.02 301.698 L 202.883 302.46 C 202.406 305.062 201.266 307.273 199.488 309.038 C 197.113 311.401 193.914 312.647 190.238 312.647 C 185.218 312.647 179.734 310.174 175.562 306.026 L 175.308 305.768 L 174.597 305.03 L 173.609 306.03 C 169.441 310.175 163.953 312.647 158.933 312.647 C 155.257 312.647 152.058 311.401 149.683 309.038 C 146.757 306.128 145.523 302.003 146.21 297.421 C 146.773 293.644 148.581 289.913 151.44 286.628 L 152.014 285.968 L 151.44 285.312 C 149.952 283.601 148.729 281.722 147.811 279.738 L 147.655 279.406 L 144.46 277.789 L 144.093 278.93 C 140.355 290.469 132.077 297.922 123.011 297.922 C 120.823 297.922 118.636 297.481 116.511 296.613 L 115.585 296.234 L 113.19 300.867 L 146.221 464.777 Z M 340.434 464.777"
        fill="#ffe2b8"/>
    <path
        id="path_5"
        d="M 340.438 464.777 L 345.782 438.234 L 140.876 438.234 L 146.228 464.777 Z M 340.438 464.777"
        fill="#ffc987"/>
    <path
        id="path_6"
        d="M 198.598 391.574 C 193.774 386.824 191.118 380.511 191.118 373.801 C 191.118 373.606 191.13 373.414 191.134 373.223 L 127.775 373.223 L 134.091 404.567 L 211.786 404.567 Z M 198.598 391.574"
        fill="#ffc987"/>
    <path
        id="path_7"
        d="M 295.527 373.223 C 295.531 373.414 295.543 373.606 295.543 373.801 C 295.543 380.512 292.891 386.824 288.07 391.574 L 274.882 404.566 L 352.57 404.566 L 358.886 373.222 Z M 295.527 373.223"
        fill="#ffc987"/>
    <path
        id="path_8"
        d="M 336.852 309.383 C 336.852 309.383 336.852 309.383 336.848 309.383 C 331.922 309.383 327.008 308.985 322.157 308.211 L 256.2 308.211 C 251.903 314.52 245.872 318.289 239.434 318.289 C 232.938 318.289 226.918 314.531 222.633 308.211 L 200.242 308.211 C 200.008 308.496 199.758 308.774 199.488 309.039 C 197.113 311.402 193.914 312.652 190.238 312.652 C 186.175 312.652 181.808 311.027 178.078 308.211 L 171.098 308.211 C 167.368 311.027 162.996 312.652 158.934 312.652 C 155.258 312.652 152.059 311.402 149.688 309.039 C 149.422 308.777 149.188 308.492 148.95 308.211 L 114.673 308.211 L 120.989 339.555 L 365.673 339.555 L 371.989 308.211 L 351.61 308.211 C 346.766 308.984 341.833 309.383 336.852 309.383 Z M 336.852 309.383"
        fill="#ffc987"/>
    <path
        id="path_9"
        d="M 170.863 464.777 L 136.093 292.226 C 132.308 295.851 127.773 297.921 123.011 297.921 C 120.823 297.921 118.636 297.48 116.511 296.612 L 115.589 296.233 L 115.206 297.155 C 114.659 298.483 113.979 299.721 113.19 300.866 L 146.221 464.776 Z M 170.863 464.777"
        fill="#eac092"/>
    <path
        id="path_10"
        d="M 170.863 464.777 L 165.515 438.234 L 140.874 438.234 L 146.226 464.777 Z M 170.863 464.777"
        fill="#e0aa68"/>
    <path
        id="path_11"
        d="M 134.09 404.566 L 158.731 404.566 L 152.415 373.222 L 127.774 373.222 Z M 134.09 404.566"
        fill="#e0aa68"/>
    <path
        id="path_12"
        d="M 120.988 339.555 L 145.629 339.555 L 139.313 308.211 L 114.672 308.211 Z M 120.988 339.555"
        fill="#e0aa68"/>
    <path
        id="path_13"
        d="M 101.676 278.117 L 101.328 276.972 L 100.262 277.515 C 95.309 280.035 90.16 281.367 85.379 281.367 C 82.707 281.367 80.231 280.945 78 280.148 C 76.535 282.996 75.691 286.214 75.691 289.636 C 75.691 301.175 85.101 310.531 96.711 310.531 C 105.856 310.531 113.609 304.718 116.504 296.617 C 109.918 293.933 104.418 287.262 101.676 278.117 Z M 101.676 278.117"
        fill="#bb0a7e"/>
    <path
        id="path_14"
        d="M 461.945 88.141 C 461.851 86.825 461.273 85.641 460.39 84.762 C 459.507 83.883 458.316 83.313 456.988 83.215 C 429.836 81.262 403.207 91.125 383.933 110.281 C 375.703 118.461 369.187 127.976 364.562 138.289 L 364.761 138.949 L 365.827 138.406 C 370.78 135.886 375.929 134.554 380.714 134.554 C 386.253 134.554 390.976 136.324 394.366 139.671 C 400.971 146.183 401.315 157.511 395.245 168.526 L 394.655 169.596 L 395.819 169.963 C 401.706 171.818 406.538 174.803 409.893 178.443 C 418.979 173.986 427.377 168.045 434.713 160.755 C 453.986 141.599 463.912 115.13 461.943 88.138 Z M 461.945 88.141"
        fill="#00cca5"/>
    <path
        id="path_15"
        d="M 461.945 88.141 C 461.851 86.825 461.273 85.641 460.39 84.762 C 459.507 83.883 458.316 83.313 456.988 83.215 C 429.836 81.262 403.207 91.125 383.933 110.281 C 375.703 118.461 369.187 127.976 364.562 138.289 L 364.761 138.949 L 365.827 138.406 C 370.78 135.886 375.929 134.554 380.714 134.554 C 382.866 134.554 384.894 134.827 386.769 135.355 C 389.128 132.347 391.664 129.457 394.414 126.726 C 412.41 108.839 436.816 99.058 462.074 99.429 C 462.258 95.687 462.222 91.917 461.945 88.14 Z M 461.945 88.141"
        fill="#02af8e"/>
    <path
        id="path_16"
        d="M 422.285 122.637 C 419.367 119.699 414.617 119.688 411.68 122.606 L 394.438 139.747 C 398.446 143.747 400.11 149.54 399.407 155.958 L 422.255 133.243 C 425.193 130.325 425.208 125.575 422.286 122.638 Z M 422.285 122.637"
        fill="#00752c"/>
    <path
        id="path_17"
        d="M 396.121 169.012 C 402.199 157.977 402.184 145.973 395.07 138.957 C 388.121 132.105 376.343 131.934 365.375 137.516 C 361.758 125.477 353.141 117 343.078 117 C 333.25 117 324.801 125.09 321.043 136.684 C 309.852 130.692 297.684 130.707 290.566 137.723 C 283.617 144.578 283.441 156.188 289.101 167.008 C 276.89 170.574 268.296 179.074 268.296 188.992 C 268.296 190.332 268.468 191.64 268.769 192.922 C 272.175 191.738 275.589 191.109 278.835 191.109 C 284.378 191.109 289.101 192.879 292.491 196.226 C 299.096 202.742 299.44 214.066 293.366 225.085 L 292.776 226.151 L 293.944 226.518 C 303.819 229.631 310.725 235.928 312.647 243.186 C 320.46 241.092 328.585 239.998 336.846 239.995 C 345.826 239.999 354.655 241.292 363.084 243.761 C 363.166 243.519 363.26 243.288 363.338 243.046 C 374.529 249.038 386.701 249.023 393.815 242.007 C 400.768 235.152 400.94 223.542 395.28 212.722 C 407.491 209.156 416.085 200.659 416.085 190.738 C 416.089 181.047 407.882 172.715 396.12 169.011 Z M 396.121 169.012"
        fill="#ffcb00"/>
    <path
        id="path_18"
        d="M 365.176 189.863 C 365.176 177.347 354.887 167.199 342.192 167.199 C 329.501 167.199 319.208 177.347 319.208 189.863 C 319.208 202.383 329.501 212.531 342.192 212.531 C 354.887 212.531 365.176 202.383 365.176 189.863 Z M 365.176 189.863"
        fill="#ffffff"/>
    <path
        id="path_19"
        d="M 340.664 189.863 C 340.664 181.172 345.633 173.621 352.922 169.82 C 349.719 168.152 346.07 167.199 342.195 167.199 C 329.5 167.199 319.207 177.347 319.207 189.863 C 319.207 202.383 329.5 212.531 342.195 212.531 C 346.07 212.531 349.718 211.582 352.922 209.91 C 345.633 206.109 340.664 198.562 340.664 189.863 Z M 340.664 189.863"
        fill="#e0e0e0"/>
    <path
        id="path_20"
        d="M 407.766 271.207 C 389.953 250.738 364.11 239 336.848 238.996 C 328.496 239 320.278 240.105 312.379 242.223 C 312.922 243.868 313.211 245.567 313.211 247.297 C 313.211 256.504 305.328 264.758 293.125 268.32 L 291.953 268.664 L 292.519 269.742 C 298.148 280.504 297.644 291.535 291.238 297.851 C 291.066 298.019 290.883 298.164 290.703 298.328 C 304.621 306.144 320.476 310.383 336.848 310.383 C 364.106 310.383 389.957 298.645 407.766 278.176 C 408.633 277.176 409.071 275.934 409.071 274.692 C 409.071 273.45 408.633 272.208 407.766 271.208 Z M 407.766 271.207"
        fill="#00cca5"/>
    <path
        id="path_21"
        d="M 407.766 271.207 C 405.551 268.66 403.211 266.254 400.762 263.984 C 383.504 279.964 360.719 288.968 336.848 288.964 C 324.684 288.964 312.813 286.605 301.801 282.191 L 296.317 282.191 C 296.848 288.41 295.141 294.007 291.239 297.851 C 291.071 298.019 290.884 298.167 290.704 298.328 C 304.622 306.144 320.481 310.383 336.852 310.383 C 364.106 310.383 389.957 298.645 407.766 278.176 C 408.633 277.18 409.071 275.934 409.071 274.692 C 409.071 273.45 408.633 272.208 407.766 271.208 Z M 407.766 271.207"
        fill="#02af8e"/>
    <path
        id="path_22"
        d="M 347.656 267.191 L 296.414 267.191 C 295.351 267.601 294.266 267.988 293.125 268.32 L 291.953 268.66 L 292.519 269.742 C 294.722 273.949 295.972 278.195 296.308 282.187 L 347.656 282.191 C 351.801 282.191 355.156 278.832 355.156 274.691 C 355.156 270.55 351.801 267.191 347.656 267.191 Z M 347.656 267.191"
        fill="#00752c"/>
    <path
        id="path_23"
        d="M 199.344 131.035 L 199.344 190.168 C 200.535 189.98 201.77 189.875 203.055 189.875 C 206.7 189.875 210.535 190.652 214.344 192.129 L 214.344 131.035 Z M 199.344 131.035"
        fill="#b57a4e"/>
    <path
        id="path_24"
        d="M 264.348 126.887 C 264.348 129.719 262.028 132.035 259.192 132.035 L 154.501 132.035 C 151.665 132.035 149.345 129.719 149.345 126.887 L 149.345 65.914 C 149.345 63.082 151.665 60.766 154.501 60.766 L 259.192 60.766 C 262.028 60.766 264.348 63.082 264.348 65.914 Z M 264.348 126.887"
        fill="#abebff"/>
    <path
        id="path_25"
        d="M 168.281 126.887 L 168.281 65.914 C 168.281 63.082 170.601 60.766 173.437 60.766 L 154.496 60.766 C 151.66 60.766 149.344 63.082 149.344 65.914 L 149.344 126.887 C 149.344 129.719 151.66 132.035 154.496 132.035 L 173.437 132.035 C 170.601 132.035 168.281 129.719 168.281 126.887 Z M 168.281 126.887"
        fill="#76d8ff"/>
    <path
        id="path_26"
        d="M 236.898 91.824 L 176.789 91.824 C 172.648 91.824 169.289 88.465 169.289 84.324 C 169.289 80.183 172.648 76.824 176.789 76.824 L 236.898 76.824 C 241.039 76.824 244.398 80.183 244.398 84.324 C 244.398 88.465 241.039 91.824 236.898 91.824 Z M 236.898 91.824"
        fill="#0052ac"/>
    <path
        id="path_27"
        d="M 224.355 113.91 L 189.335 113.91 C 185.19 113.91 181.835 110.551 181.835 106.41 C 181.835 102.269 185.19 98.91 189.335 98.91 L 224.355 98.91 C 228.496 98.91 231.855 102.269 231.855 106.41 C 231.855 110.551 228.496 113.91 224.355 113.91 Z M 224.355 113.91"
        fill="#0052ac"/>
    <path
        id="path_28"
        d="M 146.211 274.516 C 145.523 269.934 146.758 265.809 149.688 262.899 C 152.063 260.536 155.258 259.29 158.934 259.29 C 163.954 259.29 169.442 261.767 173.61 265.911 L 174.594 266.911 L 175.309 266.173 C 175.391 266.087 175.477 265.997 175.563 265.915 C 176.665 264.817 177.864 263.841 179.118 262.993 C 171.837 258.72 167.423 252.364 167.423 245.552 C 167.423 236.341 175.31 228.091 187.509 224.525 L 188.681 224.185 L 188.115 223.103 C 185.392 217.896 184.119 212.634 184.24 207.865 C 182.26 206.818 180.115 205.924 177.83 205.201 C 183.908 194.17 183.889 182.166 176.775 175.15 C 169.83 168.298 158.052 168.127 147.08 173.705 C 143.463 161.666 134.846 153.193 124.783 153.193 C 114.955 153.193 106.51 161.279 102.752 172.877 C 91.557 166.885 79.389 166.9 72.272 173.916 C 65.323 180.768 65.151 192.381 70.807 203.201 C 58.596 206.767 50.002 215.267 50.002 225.185 C 50.002 234.876 58.205 243.208 69.967 246.912 C 63.889 257.947 63.908 269.951 71.026 276.967 C 77.971 283.819 89.749 283.99 100.717 278.408 C 104.334 290.447 112.951 298.924 123.014 298.924 C 132.842 298.924 141.287 290.838 145.049 279.24 C 146.139 279.822 147.237 280.33 148.338 280.799 C 147.26 278.768 146.529 276.651 146.213 274.518 Z M 146.211 274.516"
        fill="#ffcb00"/>
    <path
        id="path_29"
        d="M 146.879 226.055 C 146.879 213.539 136.59 203.391 123.895 203.391 C 111.204 203.391 100.911 213.539 100.911 226.055 C 100.911 238.575 111.204 248.719 123.895 248.719 C 136.59 248.719 146.879 238.574 146.879 226.055 Z M 146.879 226.055"
        fill="#ffffff"/>
    <path
        id="path_30"
        d="M 119.371 226.055 C 119.371 216.778 125.031 208.805 133.129 205.301 C 130.301 204.074 127.18 203.391 123.899 203.391 C 111.204 203.391 100.911 213.539 100.911 226.055 C 100.911 238.575 111.204 248.723 123.899 248.723 C 127.18 248.723 130.301 248.035 133.129 246.813 C 125.031 243.305 119.371 235.336 119.371 226.055 Z M 119.371 226.055"
        fill="#e0e0e0"/>
    <path
        id="path_31"
        d="M 314.211 247.297 C 314.211 237.606 306.012 229.274 294.246 225.567 C 300.328 214.536 300.309 202.532 293.195 195.516 C 286.246 188.661 274.468 188.493 263.496 194.075 C 259.883 182.032 251.266 173.559 241.203 173.559 C 231.375 173.559 222.926 181.645 219.168 193.243 C 207.977 187.251 195.805 187.266 188.691 194.282 C 181.742 201.137 181.57 212.747 187.226 223.567 C 175.015 227.133 166.421 235.633 166.421 245.551 C 166.421 252.789 170.999 259.27 178.218 263.629 C 181.917 260.875 186.226 259.289 190.238 259.289 C 193.914 259.289 197.113 260.539 199.488 262.898 C 204.914 268.293 204.156 277.929 197.73 285.312 L 197.16 285.968 L 197.73 286.628 C 202.085 291.628 203.828 297.663 202.816 302.714 C 207.433 302.538 212.363 301.202 217.136 298.773 C 220.753 310.816 229.366 319.289 239.433 319.289 C 249.261 319.289 257.706 311.203 261.464 299.605 C 272.655 305.597 284.827 305.582 291.941 298.566 C 298.89 291.714 299.066 280.101 293.406 269.281 C 305.617 265.715 314.211 257.218 314.211 247.297 Z M 314.211 247.297"
        fill="#bb0a7e"/>
    <path
        id="path_32"
        d="M 263.301 246.422 C 263.301 233.902 253.012 223.758 240.317 223.758 C 227.626 223.758 217.333 233.903 217.333 246.422 C 217.333 258.941 227.626 269.09 240.317 269.09 C 253.012 269.09 263.301 258.942 263.301 246.422 Z M 263.301 246.422"
        fill="#ffffff"/>
    <path
        id="path_33"
        d="M 234.879 246.422 C 234.879 236.969 240.75 228.871 249.09 225.473 C 246.387 224.368 243.426 223.758 240.317 223.758 C 227.629 223.758 217.337 233.906 217.337 246.422 C 217.337 258.942 227.63 269.09 240.317 269.09 C 243.426 269.09 246.387 268.477 249.09 267.375 C 240.75 263.973 234.879 255.875 234.879 246.422 Z M 234.879 246.422"
        fill="#e0e0e0"/>
    <path
        id="path_34"
        d="M 190.238 313.648 C 184.961 313.648 179.211 311.066 174.855 306.738 C 174.765 306.648 174.675 306.554 174.585 306.465 C 174.495 306.555 174.409 306.645 174.319 306.735 C 169.96 311.067 164.21 313.653 158.932 313.653 C 154.987 313.653 151.541 312.301 148.979 309.751 C 145.819 306.61 144.483 302.181 145.217 297.274 C 145.807 293.317 147.733 289.364 150.686 285.973 C 147.729 282.575 145.807 278.621 145.217 274.664 C 144.483 269.762 145.819 265.328 148.979 262.191 C 151.542 259.64 154.987 258.289 158.932 258.289 C 164.209 258.289 169.959 260.871 174.311 265.203 C 174.405 265.293 174.495 265.383 174.584 265.476 C 174.674 265.382 174.768 265.288 174.857 265.199 C 179.209 260.875 184.955 258.289 190.236 258.289 C 194.181 258.289 197.623 259.641 200.193 262.191 C 206.084 268.046 205.244 278.203 198.482 285.968 C 205.24 293.734 206.084 303.894 200.193 309.749 C 197.627 312.3 194.181 313.647 190.236 313.647 Z M 190.238 313.648"
        fill="#ffffff"/>
    <path
        id="path_35"
        d="M 170.328 309.75 C 167.172 306.609 165.836 302.18 166.57 297.273 C 167.16 293.316 169.086 289.363 172.039 285.968 C 169.082 282.573 167.16 278.62 166.566 274.663 C 165.836 269.757 167.171 265.327 170.328 262.186 C 170.371 262.143 170.422 262.108 170.469 262.061 C 166.852 259.655 162.77 258.288 158.934 258.288 C 154.993 258.288 151.547 259.636 148.981 262.186 C 145.821 265.327 144.489 269.756 145.219 274.663 C 145.813 278.62 147.735 282.573 150.692 285.968 C 147.735 289.363 145.813 293.316 145.223 297.273 C 144.489 302.179 145.821 306.609 148.981 309.75 C 151.547 312.301 154.993 313.648 158.934 313.648 C 162.77 313.648 166.848 312.281 170.469 309.875 C 170.422 309.832 170.371 309.793 170.328 309.75 Z M 170.328 309.75"
        fill="#e0e0e0"/>
    <path
        id="path_36"
        d="M 157.559 512 C 131.75 512 108.727 495.719 100.262 471.484 C 99.645 469.711 99.926 467.746 101.02 466.214 C 102.114 464.682 103.891 463.776 105.778 463.776 L 377.258 463.776 C 379.145 463.776 380.918 464.682 382.016 466.214 C 383.11 467.745 383.391 469.71 382.77 471.484 C 374.309 495.718 351.282 512 325.473 512 Z M 157.559 512"
        fill="#b57a4e"/>
    <path
        id="path_37"
        d="M 132.66 471.484 C 132.043 469.711 132.324 467.746 133.422 466.214 C 134.516 464.683 136.289 463.776 138.18 463.776 L 105.778 463.776 C 103.891 463.776 102.114 464.682 101.02 466.214 C 99.926 467.746 99.645 469.71 100.262 471.484 C 108.727 495.718 131.75 512 157.559 512 L 189.961 512 C 164.148 512 141.125 495.719 132.66 471.484 Z M 132.66 471.484"
        fill="#9b5729"/>
    <path
        id="path_38"
        d="M 243.332 433.59 C 241.988 433.59 240.723 433.074 239.773 432.141 L 198.593 391.575 C 193.773 386.825 191.116 380.512 191.116 373.802 C 191.116 367.087 193.772 360.771 198.593 356.029 C 203.413 351.279 209.82 348.662 216.64 348.662 C 223.453 348.662 229.863 351.279 234.687 356.029 L 243.332 364.541 L 251.973 356.029 C 256.801 351.279 263.203 348.662 270.024 348.662 C 276.84 348.662 283.247 351.279 288.071 356.029 C 292.887 360.775 295.54 367.088 295.54 373.802 C 295.54 380.513 292.892 386.825 288.071 391.575 L 246.887 432.141 C 245.938 433.075 244.672 433.59 243.332 433.59 Z M 243.332 433.59"
        fill="#fe3745"/>
    <path
        id="path_39"
        d="M 219.996 380.297 C 215.176 375.547 212.519 369.234 212.519 362.52 C 212.519 357.52 213.996 352.739 216.742 348.665 C 216.711 348.665 216.676 348.661 216.64 348.661 C 209.82 348.661 203.413 351.278 198.597 356.028 C 193.773 360.77 191.117 367.087 191.117 373.801 C 191.117 380.512 193.773 386.824 198.597 391.574 L 239.777 432.14 C 240.722 433.074 241.988 433.589 243.336 433.589 C 244.676 433.589 245.938 433.073 246.887 432.14 L 259.758 419.46 Z M 219.996 380.297"
        fill="#cf043c"/>
</svg>
