<svg
    xmlns="http://www.w3.org/2000/svg"
    viewBox="0 0 512 512"
    id="vector">
    <path
        id="path"
        d="M 448 264 L 416 264 L 416 216 C 416 127.776 344.225 56 256 56 C 167.775 56 96 127.776 96 216 L 96 264 L 64 264 L 64 216 C 64 110.131 150.131 24 256 24 C 361.869 24 448 110.131 448 216 Z"
        fill="#f5871e"/>
    <path
        id="path_1"
        d="M 224 264 C 224 257.392 222.664 251.097 220.249 245.368 C 237.855 246.396 255.804 240.196 269.255 226.745 L 280 216 L 269.255 205.255 C 255.803 191.804 237.855 185.604 220.249 186.632 C 222.664 180.903 224 174.608 224 168 C 224 163.582 220.418 160 216 160 C 189.49 160 168 181.49 168 208 L 168 216 L 168 224 C 168 250.51 189.49 272 216 272 C 220.418 272 224 268.418 224 264 Z"
        fill="#91b945"/>
    <path
        id="path_2"
        d="M 224 264 C 224 257.392 222.664 251.097 220.248 245.368 C 237.854 246.396 255.803 240.196 269.254 226.745 L 280 216 L 176 216 L 168 216 L 168 224 C 168 250.51 189.49 272 216 272 C 220.418 272 224 268.418 224 264 Z"
        fill="#69a041"/>
    <path
        id="path_3"
        d="M 168 328 M 144 328 C 144 321.637 146.53 315.529 151.029 311.029 C 155.529 306.53 161.637 304 168 304 C 174.363 304 180.471 306.53 184.971 311.029 C 189.47 315.529 192 321.637 192 328 C 192 334.363 189.47 340.471 184.971 344.971 C 180.471 349.47 174.363 352 168 352 C 161.637 352 155.529 349.47 151.029 344.971 C 146.53 340.471 144 334.363 144 328"
        fill="#d7322d"/>
    <path
        id="path_4"
        d="M 152 232 M 128 232 C 128 225.637 130.53 219.529 135.029 215.029 C 139.529 210.53 145.637 208 152 208 C 158.363 208 164.471 210.53 168.971 215.029 C 173.47 219.529 176 225.637 176 232 C 176 238.363 173.47 244.471 168.971 248.971 C 164.471 253.47 158.363 256 152 256 C 145.637 256 139.529 253.47 135.029 248.971 C 130.53 244.471 128 238.363 128 232"
        fill="#784687"/>
    <path
        id="path_5"
        d="M 144 224 M 136 224 C 136 221.879 136.843 219.843 138.343 218.343 C 139.843 216.843 141.879 216 144 216 C 146.121 216 148.157 216.843 149.657 218.343 C 151.157 219.843 152 221.879 152 224 C 152 226.121 151.157 228.157 149.657 229.657 C 148.157 231.157 146.121 232 144 232 C 141.879 232 139.843 231.157 138.343 229.657 C 136.843 228.157 136 226.121 136 224"
        fill="#9b5faa"/>
    <path
        id="path_6"
        d="M 184 232 M 160 232 C 160 226.932 161.605 221.993 164.584 217.893 C 167.562 213.793 171.764 210.741 176.584 209.175 C 181.403 207.609 186.597 207.609 191.416 209.175 C 196.236 210.741 200.438 213.793 203.416 217.893 C 206.395 221.993 208 226.932 208 232 C 208 237.068 206.395 242.007 203.416 246.107 C 200.438 250.207 196.236 253.259 191.416 254.825 C 186.597 256.391 181.403 256.391 176.584 254.825 C 171.764 253.259 167.562 250.207 164.584 246.107 C 161.605 242.007 160 237.068 160 232"
        fill="#784687"/>
    <path
        id="path_7"
        d="M 176 224 M 168 224 C 168 221.879 168.843 219.843 170.343 218.343 C 171.843 216.843 173.879 216 176 216 C 178.121 216 180.157 216.843 181.657 218.343 C 183.157 219.843 184 221.879 184 224 C 184 226.121 183.157 228.157 181.657 229.657 C 180.157 231.157 178.121 232 176 232 C 173.879 232 171.843 231.157 170.343 229.657 C 168.843 228.157 168 226.121 168 224"
        fill="#9b5faa"/>
    <path
        id="path_8"
        d="M 152 296 M 128 296 C 128 289.637 130.53 283.529 135.029 279.029 C 139.529 274.53 145.637 272 152 272 C 158.363 272 164.471 274.53 168.971 279.029 C 173.47 283.529 176 289.637 176 296 C 176 302.363 173.47 308.471 168.971 312.971 C 164.471 317.47 158.363 320 152 320 C 145.637 320 139.529 317.47 135.029 312.971 C 130.53 308.471 128 302.363 128 296"
        fill="#d7322d"/>
    <path
        id="path_9"
        d="M 184 296 M 160 296 C 160 290.932 161.605 285.993 164.584 281.893 C 167.562 277.793 171.764 274.741 176.584 273.175 C 181.403 271.609 186.597 271.609 191.416 273.175 C 196.236 274.741 200.438 277.793 203.416 281.893 C 206.395 285.993 208 290.932 208 296 C 208 301.068 206.395 306.007 203.416 310.107 C 200.438 314.207 196.236 317.259 191.416 318.825 C 186.597 320.391 181.403 320.391 176.584 318.825 C 171.764 317.259 167.562 314.207 164.584 310.107 C 161.605 306.007 160 301.068 160 296"
        fill="#d7322d"/>
    <path
        id="path_10"
        d="M 136 264 M 112 264 C 112 257.637 114.53 251.529 119.029 247.029 C 123.529 242.53 129.637 240 136 240 C 142.363 240 148.471 242.53 152.971 247.029 C 157.47 251.529 160 257.637 160 264 C 160 270.363 157.47 276.471 152.971 280.971 C 148.471 285.47 142.363 288 136 288 C 129.637 288 123.529 285.47 119.029 280.971 C 114.53 276.471 112 270.363 112 264"
        fill="#784687"/>
    <path
        id="path_11"
        d="M 128 256 M 120 256 C 120 253.879 120.843 251.843 122.343 250.343 C 123.843 248.843 125.879 248 128 248 C 130.121 248 132.157 248.843 133.657 250.343 C 135.157 251.843 136 253.879 136 256 C 136 258.121 135.157 260.157 133.657 261.657 C 132.157 263.157 130.121 264 128 264 C 125.879 264 123.843 263.157 122.343 261.657 C 120.843 260.157 120 258.121 120 256"
        fill="#9b5faa"/>
    <path
        id="path_12"
        d="M 200 264 M 176 264 C 175.984 258.922 177.58 253.968 180.557 249.854 C 183.534 245.74 187.741 242.676 192.569 241.103 C 197.398 239.531 202.602 239.531 207.431 241.103 C 212.259 242.676 216.466 245.74 219.443 249.854 C 222.42 253.968 224.016 258.922 224 264 C 224.016 269.078 222.42 274.032 219.443 278.146 C 216.466 282.26 212.259 285.324 207.431 286.897 C 202.602 288.469 197.398 288.469 192.569 286.897 C 187.741 285.324 183.534 282.26 180.557 278.146 C 177.58 274.032 175.984 269.078 176 264"
        fill="#784687"/>
    <path
        id="path_13"
        d="M 168 264 M 144 264 C 144 257.637 146.53 251.529 151.029 247.029 C 155.529 242.53 161.637 240 168 240 C 174.363 240 180.471 242.53 184.971 247.029 C 189.47 251.529 192 257.637 192 264 C 192 270.363 189.47 276.471 184.971 280.971 C 180.471 285.47 174.363 288 168 288 C 161.637 288 155.529 285.47 151.029 280.971 C 146.53 276.471 144 270.363 144 264"
        fill="#784687"/>
    <path
        id="path_14"
        d="M 160 256 M 152 256 C 152 253.879 152.843 251.843 154.343 250.343 C 155.843 248.843 157.879 248 160 248 C 162.121 248 164.157 248.843 165.657 250.343 C 167.157 251.843 168 253.879 168 256 C 168 258.121 167.157 260.157 165.657 261.657 C 164.157 263.157 162.121 264 160 264 C 157.879 264 155.843 263.157 154.343 261.657 C 152.843 260.157 152 258.121 152 256"
        fill="#9b5faa"/>
    <path
        id="path_15"
        d="M 192 256 M 184 256 C 184 253.879 184.843 251.843 186.343 250.343 C 187.843 248.843 189.879 248 192 248 C 194.121 248 196.157 248.843 197.657 250.343 C 199.157 251.843 200 253.879 200 256 C 200 258.121 199.157 260.157 197.657 261.657 C 196.157 263.157 194.121 264 192 264 C 189.879 264 187.843 263.157 186.343 261.657 C 184.843 260.157 184 258.121 184 256"
        fill="#9b5faa"/>
    <path
        id="path_16"
        d="M 144 288 M 136 288 C 136 285.879 136.843 283.843 138.343 282.343 C 139.843 280.843 141.879 280 144 280 C 146.121 280 148.157 280.843 149.657 282.343 C 151.157 283.843 152 285.879 152 288 C 152 290.121 151.157 292.157 149.657 293.657 C 148.157 295.157 146.121 296 144 296 C 141.879 296 139.843 295.157 138.343 293.657 C 136.843 292.157 136 290.121 136 288"
        fill="#f04b37"/>
    <path
        id="path_17"
        d="M 176 288 M 168 288 C 168 285.879 168.843 283.843 170.343 282.343 C 171.843 280.843 173.879 280 176 280 C 178.121 280 180.157 280.843 181.657 282.343 C 183.157 283.843 184 285.879 184 288 C 184 290.121 183.157 292.157 181.657 293.657 C 180.157 295.157 178.121 296 176 296 C 173.879 296 171.843 295.157 170.343 293.657 C 168.843 292.157 168 290.121 168 288"
        fill="#f04b37"/>
    <path
        id="path_18"
        d="M 160 320 M 152 320 C 152 317.879 152.843 315.843 154.343 314.343 C 155.843 312.843 157.879 312 160 312 C 162.121 312 164.157 312.843 165.657 314.343 C 167.157 315.843 168 317.879 168 320 C 168 322.121 167.157 324.157 165.657 325.657 C 164.157 327.157 162.121 328 160 328 C 157.879 328 155.843 327.157 154.343 325.657 C 152.843 324.157 152 322.121 152 320"
        fill="#f04b37"/>
    <path
        id="path_19"
        d="M 336 205.333 C 331.582 205.333 328 201.751 328 197.333 L 328 192 C 328 178.766 317.233 168 304 168 C 299.582 168 296 164.418 296 160 C 296 155.582 299.582 152 304 152 C 326.056 152 344 169.944 344 192 L 344 197.333 C 344 201.751 340.418 205.333 336 205.333 Z"
        fill="#353744"/>
    <path
        id="path_20"
        d="M 368 184 C 355.704 184 344.493 188.629 336 196.232 C 327.507 188.629 316.296 184 304 184 C 277.49 184 256 205.49 256 232 C 256 277.333 288 312 312 312 C 336 312 336 312 336 312 C 336 312 336 312 360 312 C 384 312 416 277.333 416 232 C 416 205.49 394.51 184 368 184 Z"
        fill="#d7322d"/>
    <path
        id="path_21"
        d="M 296 216 M 280 216 C 280 211.758 281.687 207.686 284.686 204.686 C 287.686 201.687 291.758 200 296 200 C 300.242 200 304.314 201.687 307.314 204.686 C 310.313 207.686 312 211.758 312 216 C 312 220.242 310.313 224.314 307.314 227.314 C 304.314 230.313 300.242 232 296 232 C 291.758 232 287.686 230.313 284.686 227.314 C 281.687 224.314 280 220.242 280 216"
        fill="#f04b37"/>
    <path
        id="path_22"
        d="M 376 120 C 353.909 120 336 137.909 336 160 L 336 168 L 344 168 C 366.091 168 384 150.091 384 128 C 384 123.582 380.418 120 376 120 Z"
        fill="#69a041"/>
    <path
        id="path_23"
        d="M 448 328 L 64 328 C 55.163 328 48 320.837 48 312 L 48 280 C 48 271.163 55.163 264 64 264 L 448 264 C 456.837 264 464 271.163 464 280 L 464 312 C 464 320.837 456.837 328 448 328 Z"
        fill="#fabe19"/>
    <path
        id="path_24"
        d="M 448 264 L 256 264 L 256 328 L 448 328 C 456.836 328 464 320.837 464 312 L 464 280 C 464 271.163 456.836 264 448 264 Z"
        fill="#f5871e"/>
    <path
        id="path_25"
        d="M 373.766 488 L 138.234 488 C 122.98 488 109.847 477.233 106.855 462.276 L 80 328 L 432 328 L 405.145 462.276 C 402.153 477.233 389.02 488 373.766 488 Z"
        fill="#f5871e"/>
    <path
        id="path_26"
        d="M 138.234 488 L 224 488 C 241.673 488 256 473.673 256 456 L 256 344 L 83.2 344 L 106.855 462.276 C 109.847 477.233 122.98 488 138.234 488 Z"
        fill="#fabe19"/>
    <path
        id="path_27"
        d="M 120 296 L 88 296 C 83.582 296 80 292.418 80 288 C 80 283.582 83.582 280 88 280 L 120 280 C 124.418 280 128 283.582 128 288 C 128 292.418 124.418 296 120 296 Z"
        fill="#f5871e"/>
    <path
        id="path_28"
        d="M 152 392 L 120 392 C 115.582 392 112 388.418 112 384 C 112 379.582 115.582 376 120 376 L 152 376 C 156.418 376 160 379.582 160 384 C 160 388.418 156.418 392 152 392 Z"
        fill="#f5871e"/>
    <path
        id="path_29"
        d="M 328 408 L 296 408 C 291.582 408 288 404.418 288 400 C 288 395.582 291.582 392 296 392 L 328 392 C 332.418 392 336 395.582 336 400 C 336 404.418 332.418 408 328 408 Z"
        fill="#fabe19"/>
    <path
        id="path_30"
        d="M 200 440 L 168 440 C 163.582 440 160 436.418 160 432 C 160 427.582 163.582 424 168 424 L 200 424 C 204.418 424 208 427.582 208 432 C 208 436.418 204.418 440 200 440 Z"
        fill="#f5871e"/>
    <path
        id="path_31"
        d="M 232 376 L 200 376 C 195.582 376 192 372.418 192 368 C 192 363.582 195.582 360 200 360 L 232 360 C 236.418 360 240 363.582 240 368 C 240 372.418 236.418 376 232 376 Z"
        fill="#f5871e"/>
</svg>
