<svg
    xmlns="http://www.w3.org/2000/svg"
    viewBox="0 0 512 512"
    id="vector">
    <path
        id="path"
        d="M 352.014 80.741 C 338.797 93.958 314.67 139.811 314.67 139.811 L 312.836 138.987 L 236.397 104.497 C 220.563 59.375 225.796 20.074 241.476 20.074 C 256.908 20.074 273.617 58.366 274.143 59.561 C 273.927 58.108 265.345 1.48 291.141 1.48 C 302.937 1.48 309.406 10.339 312.96 20.064 C 317.276 31.89 317.276 44.994 317.276 44.994 C 317.276 44.994 336.829 0.562 360.389 7.094 C 383.939 13.625 365.241 67.524 352.014 80.741 Z"
        fill="#95d6a4"/>
    <path
        id="path_1"
        d="M 308.787 123.555 C 311.579 129.643 312.846 134.753 312.836 138.987 L 236.397 104.497 C 220.563 59.375 225.796 20.074 241.476 20.074 C 256.908 20.074 273.617 58.366 274.143 59.561 C 273.927 58.108 265.345 1.48 291.141 1.48 C 302.937 1.48 309.406 10.339 312.96 20.064 L 312.95 20.074 C 303.884 1.479 277.419 55.08 308.787 123.555 Z"
        fill="#78c2a4"/>
    <path
        id="path_2"
        d="M 225.471 320.191 C 240.016 334.916 263.262 340.228 291.846 335.357 C 320.429 330.486 352.902 315.68 384.563 293.08 C 416.225 270.481 445.472 241.234 468.071 209.572 C 490.671 177.911 505.477 145.438 510.348 116.855 C 515.219 88.271 509.907 65.025 495.182 50.48 C 480.637 35.755 457.391 30.443 428.807 35.314 C 400.224 40.185 367.751 54.991 336.09 77.591 C 304.428 100.19 275.181 129.437 252.582 161.099 C 229.982 192.76 215.176 225.233 210.305 253.816 C 205.434 282.4 210.746 305.646 225.471 320.191 Z"
        fill="#e49542"/>
    <path
        id="path_3"
        d="M 225.513 320.187 C 187.306 281.98 216.721 190.619 291.204 116.135 C 365.694 41.644 457.056 12.23 495.263 50.437 C 479.179 34.353 405.752 81.702 331.261 156.193 C 256.777 230.676 209.428 304.103 225.513 320.187 Z"
        fill="#e28424"/>
    <path
        id="path_4"
        d="M 455.967 145.866 L 399.835 89.734 C 393.37 83.269 382.888 83.269 376.422 89.734 C 369.957 96.199 369.957 106.681 376.422 113.147 L 432.554 169.279 C 439.019 175.744 449.501 175.744 455.967 169.279 C 462.432 162.814 462.432 152.332 455.967 145.866 Z"
        fill="#e28424"/>
    <path
        id="path_5"
        d="M 391.791 210.042 L 335.659 153.91 C 329.194 147.445 318.712 147.445 312.246 153.91 C 305.781 160.375 305.781 170.857 312.246 177.323 L 368.378 233.455 C 374.843 239.92 385.325 239.92 391.791 233.455 C 398.256 226.99 398.256 216.508 391.791 210.042 Z"
        fill="#e28424"/>
    <path
        id="path_6"
        d="M 227.908 132.322 C 227.208 143.602 225.384 166.658 221.346 188.147 C 219.76 196.543 214.052 203.528 206.172 206.814 C 199.095 209.76 191.471 214.654 191.471 222.009 C 191.471 224.358 191.935 226.459 192.759 228.334 L 84.261 228.334 C 85.085 226.459 85.549 224.358 85.549 222.009 C 85.549 214.654 77.926 209.76 70.848 206.814 C 62.967 203.528 57.26 196.543 55.684 188.147 C 51.635 166.657 49.812 143.602 49.111 132.322 C 48.802 127.429 49.904 122.546 52.346 118.291 C 70.518 86.706 107.285 66.751 107.285 66.751 L 107.285 15.964 L 169.745 15.964 L 169.745 66.752 C 169.745 66.752 206.512 86.707 224.674 118.292 C 227.125 122.546 228.217 127.429 227.908 132.322 Z"
        fill="#80b4fb"/>
    <path
        id="path_7"
        d="M 107.285 32.189 L 169.745 32.189 L 169.745 50.662 L 107.285 50.662 Z"
        fill="#61a2f9"/>
    <path
        id="path_8"
        d="M 124.777 29.575 L 124.777 66.741 C 124.777 66.741 98.25 86.706 87.495 118.291 C 86.043 122.535 85.394 127.429 85.579 132.322 C 86.001 143.592 87.073 166.647 89.473 188.147 C 90.4 196.533 93.779 203.528 98.456 206.814 C 102.638 209.76 107.151 214.654 107.151 222.009 C 107.151 224.358 106.883 226.459 106.389 228.334 L 84.261 228.334 C 85.085 226.459 85.549 224.358 85.549 222.009 C 85.549 214.654 77.926 209.76 70.848 206.814 C 62.967 203.528 57.26 196.533 55.684 188.147 C 51.625 166.657 49.812 143.592 49.111 132.322 C 48.802 127.429 49.894 122.535 52.346 118.291 C 70.508 86.706 107.285 66.741 107.285 66.741 L 107.285 37.773 Z"
        fill="#61a2f9"/>
    <path
        id="path_9"
        d="M 162.535 2.366 L 114.49 2.366 C 106.982 2.366 100.895 8.453 100.895 15.961 L 100.895 37.775 L 176.13 37.775 L 176.13 15.961 C 176.13 8.453 170.043 2.366 162.535 2.366 Z"
        fill="#db5c6e"/>
    <path
        id="path_10"
        d="M 141.438 2.37 C 133.931 2.37 127.841 8.45 127.841 15.957 L 127.841 37.775 L 100.895 37.775 L 100.895 15.957 C 100.895 8.45 106.985 2.37 114.492 2.37 Z"
        fill="#d64553"/>
    <path
        id="path_11"
        d="M 482.588 274.62 C 482.588 274.62 482.135 289.64 480.641 313.004 C 478.478 346.742 474.151 397.88 465.889 446.319 C 459.574 483.364 427.577 510.52 389.996 510.52 L 122.006 510.52 C 84.425 510.52 52.428 483.365 46.113 446.319 C 37.851 397.88 33.524 346.742 31.361 313.004 C 29.867 289.64 29.414 274.62 29.414 274.62 Z"
        fill="#db5c6e"/>
    <path
        id="path_12"
        d="M 482.588 274.62 C 482.588 274.62 482.135 289.64 480.641 313.004 C 478.261 313.519 475.809 313.808 473.306 313.859 C 328.432 316.64 183.569 316.64 38.695 313.859 C 36.192 313.807 33.74 313.519 31.36 313.004 C 29.866 289.64 29.413 274.62 29.413 274.62 Z"
        fill="#d64553"/>
    <path
        id="path_13"
        d="M 155.116 510.521 L 122.006 510.521 C 84.425 510.521 52.428 483.366 46.113 446.32 C 32.134 364.349 29.414 274.62 29.414 274.62 L 85.404 274.62 C 85.404 274.62 87.454 364.348 97.972 446.319 C 102.732 483.365 126.817 510.521 155.116 510.521 Z"
        fill="#d64553"/>
    <path
        id="path_14"
        d="M 325.272 109.279 C 272.968 103.655 220.664 102.996 168.36 107.301 C 161.413 107.873 158.818 112.883 151.871 113.63 C 145.353 171.546 141.002 225.111 147.52 283.027 C 206.771 289.398 266.022 289.398 325.273 283.027 C 331.79 225.111 331.79 167.195 325.272 109.279 Z"
        fill="#ededed"/>
    <path
        id="path_15"
        d="M 168.36 285.006 C 161.417 284.439 154.463 283.78 147.52 283.028 C 140.999 225.111 140.999 167.195 147.52 109.279 C 154.463 108.537 161.417 107.878 168.36 107.301 C 161.922 166.536 161.922 225.771 168.36 285.006 Z"
        fill="#dbdbdb"/>
    <path
        id="path_16"
        d="M 473.302 292.947 C 328.435 295.731 183.568 295.731 38.7 292.947 C 20.688 292.601 5.312 279.779 1.73 262.123 C -0.574 250.764 -0.574 239.405 1.73 228.046 C 5.312 210.39 20.687 197.568 38.7 197.222 C 183.567 194.438 328.434 194.438 473.302 197.222 C 491.314 197.568 506.69 210.39 510.272 228.046 C 512.576 239.405 512.576 250.764 510.272 262.123 C 506.69 279.779 491.314 292.601 473.302 292.947 Z"
        fill="#ffd064"/>
    <path
        id="path_17"
        d="M 75.728 293.586 C 63.387 293.401 51.035 293.184 38.693 292.947 C 20.685 292.597 5.305 279.781 1.73 262.124 C -0.578 250.761 -0.578 239.409 1.73 228.046 C 5.305 210.389 20.685 197.563 38.693 197.223 C 51.034 196.986 63.386 196.77 75.728 196.584 C 61.027 200.231 49.335 212.057 46.234 227.397 C 43.834 239.193 43.834 250.978 46.234 262.763 C 49.335 278.102 61.028 289.939 75.728 293.586 Z"
        fill="#ffc250"/>
    <path
        id="path_18"
        d="M 153.854 336.932 C 153.693 336.932 153.532 336.932 153.37 336.932 C 139.934 336.964 128.97 347.802 128.567 361.232 C 127.941 382.125 127.941 403.018 128.567 423.911 C 128.97 437.341 139.934 448.179 153.37 448.211 L 153.854 448.211 C 167.29 448.179 178.254 437.341 178.657 423.911 C 179.283 403.018 179.283 382.125 178.657 361.232 C 178.255 347.802 167.291 336.964 153.854 336.932 Z"
        fill="#365e7d"/>
    <path
        id="path_19"
        d="M 256.243 336.932 C 256.082 336.932 255.921 336.932 255.759 336.932 C 242.323 336.964 231.359 347.802 230.956 361.232 C 230.33 382.125 230.33 403.018 230.956 423.911 C 231.359 437.341 242.323 448.179 255.759 448.211 L 256.243 448.211 C 269.679 448.179 280.643 437.341 281.046 423.911 C 281.672 403.018 281.672 382.125 281.046 361.232 C 280.643 347.802 269.679 336.964 256.243 336.932 Z"
        fill="#365e7d"/>
    <path
        id="path_20"
        d="M 358.632 336.932 C 358.471 336.932 358.31 336.932 358.148 336.932 C 344.712 336.964 333.748 347.802 333.345 361.232 C 332.719 382.125 332.719 403.018 333.345 423.911 C 333.748 437.341 344.712 448.179 358.148 448.211 L 358.632 448.211 C 372.068 448.179 383.032 437.341 383.435 423.911 C 384.061 403.018 384.061 382.125 383.435 361.232 C 383.032 347.802 372.068 336.964 358.632 336.932 Z"
        fill="#365e7d"/>
    <path
        id="path_21"
        d="M 126.684 231.458 C 121.254 228.714 115.577 226.647 109.653 225.259 C 97.42 222.393 84.975 229.146 80.386 240.842 C 57.469 299.246 36.017 358.183 16.032 417.654 C 12.03 429.563 17.222 442.736 28.435 448.404 C 33.865 451.148 39.542 453.215 45.466 454.603 C 57.699 457.469 70.144 450.716 74.733 439.02 C 97.65 380.616 119.102 321.679 139.087 262.208 C 143.09 250.298 137.898 237.125 126.684 231.458 Z"
        fill="#407093"/>
    <path
        id="path_22"
        d="M 35.503 451.537 C 33.097 450.617 30.737 449.572 28.432 448.404 C 17.216 442.743 12.026 429.562 16.031 417.656 C 36.02 358.189 57.47 299.254 80.386 240.842 C 84.971 229.147 97.416 222.396 109.65 225.259 C 112.166 225.846 114.633 226.568 117.057 227.407 C 109.106 229.523 102.305 235.347 99.125 243.453 C 75.249 304.323 52.897 365.736 32.064 427.702 C 29.287 435.965 30.76 444.811 35.503 451.537 Z"
        fill="#365e7d"/>
    <path
        id="path_23"
        d="M 402.351 225.255 C 396.427 226.643 390.75 228.709 385.32 231.454 C 374.107 237.121 368.915 250.294 372.917 262.204 C 392.903 321.675 414.354 380.612 437.271 439.016 C 441.86 450.712 454.305 457.465 466.538 454.599 C 472.462 453.211 478.139 451.145 483.569 448.4 C 494.782 442.733 499.974 429.56 495.972 417.65 C 475.986 358.179 454.535 299.242 431.618 240.838 C 427.029 229.142 414.584 222.388 402.351 225.255 Z"
        fill="#407093"/>
    <path
        id="path_24"
        d="M 473.967 452.455 C 471.533 453.297 469.053 454.013 466.537 454.6 C 454.307 457.473 441.859 450.712 437.273 439.017 C 414.361 380.614 392.91 321.679 372.918 262.203 C 368.913 250.297 374.107 237.126 385.319 231.455 C 387.624 230.287 389.978 229.255 392.374 228.339 C 387.643 235.071 386.177 243.903 388.951 252.157 C 409.787 314.133 432.14 375.546 456.012 436.406 C 459.195 444.522 466.01 450.352 473.967 452.455 Z"
        fill="#365e7d"/>
    <path
        id="path_25"
        d="M 174.658 45.275 L 102.367 45.275 C 98.225 45.275 94.867 41.917 94.867 37.775 C 94.867 33.633 98.225 30.275 102.367 30.275 L 174.658 30.275 C 178.8 30.275 182.158 33.633 182.158 37.775 C 182.158 41.917 178.8 45.275 174.658 45.275 Z"
        fill="#db5c6e"/>
    <path
        id="path_26"
        d="M 124.887 45.275 L 102.367 45.275 C 98.217 45.275 94.867 41.915 94.867 37.775 C 94.867 33.635 98.217 30.275 102.367 30.275 L 124.887 30.275 C 120.737 30.275 117.387 33.635 117.387 37.775 C 117.387 41.915 120.737 45.275 124.887 45.275 Z"
        fill="#d64553"/>
</svg>
