<svg
    xmlns="http://www.w3.org/2000/svg"
    viewBox="0 0 512 512"
    id="vector">
    <path
        id="path"
        d="M 216 84 L 216 68 L 88 68 L 88 84 C 70.327 84 56 98.327 56 116 L 56 180 C 56 197.673 70.327 212 88 212 L 216 212 C 233.673 212 248 197.673 248 180 L 248 116 C 248 98.327 233.673 84 216 84 Z"
        fill="#f04b37"/>
    <path
        id="path_1"
        d="M 152 68 L 216 68 L 216 84 L 152 84 Z"
        fill="#d7322d"/>
    <path
        id="path_2"
        d="M 152 180 L 56 180 C 56 197.673 70.327 212 88 212 L 216 212 C 233.673 212 248 197.673 248 180 L 248 116 L 160 116 C 155.582 116 152 119.582 152 124 Z"
        fill="#d7322d"/>
    <path
        id="path_3"
        d="M 216 36 L 88 36 C 83.582 36 80 39.582 80 44 L 80 60 C 80 64.418 83.582 68 88 68 L 216 68 C 220.418 68 224 64.418 224 60 L 224 44 C 224 39.582 220.418 36 216 36 Z"
        fill="#91b945"/>
    <path
        id="path_4"
        d="M 152 68 L 216 68 C 220.418 68 224 64.418 224 60 L 224 44 L 160 44 C 155.582 44 152 47.582 152 52 Z"
        fill="#69a041"/>
    <path
        id="path_5"
        d="M 80 108 C 75.582 108 72 111.582 72 116 L 72 180 L 88 180 L 88 116 C 88 111.582 84.418 108 80 108 Z"
        fill="#ff6955"/>
    <path
        id="path_6"
        d="M 424 84 L 424 68 L 296 68 L 296 84 C 278.327 84 264 98.327 264 116 L 264 180 C 264 197.673 278.327 212 296 212 L 424 212 C 441.673 212 456 197.673 456 180 L 456 116 C 456 98.327 441.673 84 424 84 Z"
        fill="#d26e28"/>
    <path
        id="path_7"
        d="M 360 68 L 424 68 L 424 84 L 360 84 Z"
        fill="#a55023"/>
    <path
        id="path_8"
        d="M 360 180 L 264 180 C 264 197.673 278.327 212 296 212 L 424 212 C 441.673 212 456 197.673 456 180 L 456 116 L 368 116 C 363.582 116 360 119.582 360 124 Z"
        fill="#a55023"/>
    <path
        id="path_9"
        d="M 424 36 L 296 36 C 291.582 36 288 39.582 288 44 L 288 60 C 288 64.418 291.582 68 296 68 L 424 68 C 428.418 68 432 64.418 432 60 L 432 44 C 432 39.582 428.418 36 424 36 Z"
        fill="#f04b37"/>
    <path
        id="path_10"
        d="M 360 68 L 424 68 C 428.418 68 432 64.418 432 60 L 432 44 L 368 44 C 363.582 44 360 47.582 360 52 Z"
        fill="#d7322d"/>
    <path
        id="path_11"
        d="M 288 108 C 283.582 108 280 111.582 280 116 L 280 180 L 296 180 L 296 116 C 296 111.582 292.418 108 288 108 Z"
        fill="#faa037"/>
    <path
        id="path_12"
        d="M 216 316 L 216 300 L 88 300 L 88 316 C 70.327 316 56 330.327 56 348 L 56 412 C 56 429.673 70.327 444 88 444 L 216 444 C 233.673 444 248 429.673 248 412 L 248 348 C 248 330.327 233.673 316 216 316 Z"
        fill="#55525b"/>
    <path
        id="path_13"
        d="M 152 300 L 216 300 L 216 316 L 152 316 Z"
        fill="#353744"/>
    <path
        id="path_14"
        d="M 152 412 L 56 412 C 56 429.673 70.327 444 88 444 L 216 444 C 233.673 444 248 429.673 248 412 L 248 348 L 160 348 C 155.582 348 152 351.582 152 356 Z"
        fill="#353744"/>
    <path
        id="path_15"
        d="M 216 268 L 88 268 C 83.582 268 80 271.582 80 276 L 80 292 C 80 296.418 83.582 300 88 300 L 216 300 C 220.418 300 224 296.418 224 292 L 224 276 C 224 271.582 220.418 268 216 268 Z"
        fill="#faa037"/>
    <path
        id="path_16"
        d="M 152 300 L 216 300 C 220.418 300 224 296.418 224 292 L 224 276 L 160 276 C 155.582 276 152 279.582 152 284 Z"
        fill="#f57828"/>
    <path
        id="path_17"
        d="M 80 340 C 75.582 340 72 343.582 72 348 L 72 412 L 88 412 L 88 348 C 88 343.582 84.418 340 80 340 Z"
        fill="#737079"/>
    <path
        id="path_18"
        d="M 424 316 L 424 300 L 296 300 L 296 316 C 278.327 316 264 330.327 264 348 L 264 412 C 264 429.673 278.327 444 296 444 L 424 444 C 441.673 444 456 429.673 456 412 L 456 348 C 456 330.327 441.673 316 424 316 Z"
        fill="#91b945"/>
    <path
        id="path_19"
        d="M 360 300 L 424 300 L 424 316 L 360 316 Z"
        fill="#69a041"/>
    <path
        id="path_20"
        d="M 360 412 L 264 412 C 264 429.673 278.327 444 296 444 L 424 444 C 441.673 444 456 429.673 456 412 L 456 348 L 368 348 C 363.582 348 360 351.582 360 356 Z"
        fill="#69a041"/>
    <path
        id="path_21"
        d="M 424 268 L 296 268 C 291.582 268 288 271.582 288 276 L 288 292 C 288 296.418 291.582 300 296 300 L 424 300 C 428.418 300 432 296.418 432 292 L 432 276 C 432 271.582 428.418 268 424 268 Z"
        fill="#d7e6e6"/>
    <path
        id="path_22"
        d="M 360 300 L 424 300 C 428.418 300 432 296.418 432 292 L 432 276 L 368 276 C 363.582 276 360 279.582 360 284 Z"
        fill="#a5c3dc"/>
    <path
        id="path_23"
        d="M 288 340 C 283.582 340 280 343.582 280 348 L 280 412 L 296 412 L 296 348 C 296 343.582 292.418 340 288 340 Z"
        fill="#afd763"/>
    <path
        id="path_24"
        d="M 464 244 L 48 244 C 39.163 244 32 236.837 32 228 L 32 212 L 480 212 L 480 228 C 480 236.837 472.837 244 464 244 Z"
        fill="#f5871e"/>
    <path
        id="path_25"
        d="M 472 92 C 467.582 92 464 95.582 464 100 L 464 124 L 48 124 L 48 100 C 48 95.582 44.418 92 40 92 C 35.582 92 32 95.582 32 100 L 32 212 L 48 212 L 48 140 L 464 140 L 464 212 L 480 212 L 480 100 C 480 95.582 476.418 92 472 92 Z"
        fill="#96aab9"/>
    <path
        id="path_26"
        d="M 464 476 L 48 476 C 39.163 476 32 468.837 32 460 L 32 444 L 480 444 L 480 460 C 480 468.837 472.837 476 464 476 Z"
        fill="#f5871e"/>
    <path
        id="path_27"
        d="M 472 324 C 467.582 324 464 327.582 464 332 L 464 356 L 48 356 L 48 332 C 48 327.582 44.418 324 40 324 C 35.582 324 32 327.582 32 332 L 32 444 L 48 444 L 48 372 L 464 372 L 464 444 L 480 444 L 480 332 C 480 327.582 476.418 324 472 324 Z"
        fill="#96aab9"/>
</svg>
