<svg
    xmlns="http://www.w3.org/2000/svg"
    viewBox="0 0 512 512"
    id="vector">
    <path
        id="path"
        d="M 300.63 204.319 C 299.888 198.694 297.596 193.381 293.966 189.021 L 160.92 170.783 L 27.874 189.021 C 24.245 193.382 21.952 198.695 21.21 204.319 C 17.348 233.582 5.662 334.823 13.292 438.525 C 16.341 479.967 50.94 511.996 92.494 511.996 L 160.92 511.996 L 229.346 511.996 C 270.9 511.996 305.499 479.968 308.548 438.525 C 316.179 334.823 304.492 233.582 300.63 204.319 Z"
        fill="#407093"/>
    <path
        id="path_1"
        d="M 87.655 204.319 C 85.626 233.586 79.506 334.831 83.504 438.528 C 85.1 479.972 103.241 512 125.04 512 L 92.497 512 C 50.94 512 16.347 479.972 13.297 438.528 C 5.664 334.831 17.346 233.586 21.209 204.319 C 21.951 198.694 24.248 193.389 27.874 189.021 L 64.233 176.943 L 91.147 189.021 C 89.241 193.389 88.046 198.694 87.655 204.319 Z"
        fill="#365e7d"/>
    <path
        id="path_2"
        d="M 293.962 189.016 L 27.879 189.016 C 58.28 152.496 94.263 133.696 94.263 133.696 L 94.263 101.173 L 160.92 80.762 L 227.577 101.173 L 227.577 133.696 C 227.578 133.696 263.562 152.496 293.962 189.016 Z"
        fill="#d3effb"/>
    <path
        id="path_3"
        d="M 125.962 101.183 L 94.264 101.183 L 94.259 101.186 L 94.259 133.7 C 94.259 133.7 58.275 152.501 27.874 189.02 L 91.145 189.02 C 107.092 152.504 125.963 133.705 125.963 133.705 L 125.963 101.183 Z"
        fill="#b1e4f9"/>
    <path
        id="path_4"
        d="M 221.961 60.35 L 99.879 60.35 C 88.606 60.35 79.467 69.489 79.467 80.762 C 79.467 92.035 88.606 101.174 99.879 101.174 L 184.608 101.174 L 221.961 101.174 C 233.234 101.174 242.373 92.035 242.373 80.762 C 242.373 69.489 233.234 60.35 221.961 60.35 Z"
        fill="#80b4fb"/>
    <path
        id="path_5"
        d="M 126.371 95.195 C 130.069 98.883 135.179 101.17 140.814 101.17 L 99.875 101.17 C 94.24 101.17 89.141 98.883 85.442 95.195 C 81.754 91.497 79.467 86.397 79.467 80.762 C 79.467 69.482 88.605 60.344 99.875 60.344 L 140.814 60.344 C 129.534 60.344 120.396 69.482 120.396 80.762 C 120.396 86.397 122.683 91.496 126.371 95.195 Z"
        fill="#61a2f9"/>
    <path
        id="path_6"
        d="M 72.042 398.365 M 49.82 398.365 C 49.805 393.663 51.283 389.076 54.039 385.267 C 56.796 381.458 60.691 378.62 65.162 377.165 C 69.632 375.709 74.452 375.709 78.922 377.165 C 83.393 378.62 87.288 381.458 90.045 385.267 C 92.801 389.076 94.279 393.663 94.264 398.365 C 94.279 403.067 92.801 407.654 90.045 411.463 C 87.288 415.272 83.393 418.11 78.922 419.565 C 74.452 421.021 69.632 421.021 65.162 419.565 C 60.691 418.11 56.796 415.272 54.039 411.463 C 51.283 407.654 49.805 403.067 49.82 398.365"
        fill="#4a80aa"/>
    <path
        id="path_7"
        d="M 110.115 333.503 M 94.263 333.503 C 94.263 330.156 95.323 326.893 97.29 324.185 C 99.258 321.478 102.033 319.461 105.216 318.427 C 108.4 317.393 111.83 317.393 115.014 318.427 C 118.197 319.461 120.972 321.478 122.94 324.185 C 124.907 326.893 125.967 330.156 125.967 333.503 C 125.967 337.706 124.296 341.74 121.324 344.712 C 118.352 347.684 114.318 349.355 110.115 349.355 C 105.912 349.355 101.878 347.684 98.906 344.712 C 95.934 341.74 94.263 337.706 94.263 333.503"
        fill="#4a80aa"/>
    <path
        id="path_8"
        d="M 168.757 453.777 M 152.905 453.777 C 152.894 450.423 153.948 447.151 155.915 444.434 C 157.881 441.716 160.66 439.692 163.849 438.654 C 167.038 437.615 170.476 437.615 173.665 438.654 C 176.854 439.692 179.633 441.716 181.599 444.434 C 183.566 447.151 184.62 450.423 184.609 453.777 C 184.62 457.131 183.566 460.403 181.599 463.12 C 179.633 465.838 176.854 467.862 173.665 468.9 C 170.476 469.939 167.038 469.939 163.849 468.9 C 160.66 467.862 157.881 465.838 155.915 463.12 C 153.948 460.403 152.894 457.131 152.905 453.777"
        fill="#4a80aa"/>
    <path
        id="path_9"
        d="M 393.377 279.743 C 393.377 290.683 401.144 297.41 410.735 300.923 C 422.438 305.219 430.38 316.159 431.452 328.573 C 434.429 363.382 436.5 429.324 418.049 487.92 C 413.547 502.239 400.299 511.995 385.29 511.995 L 266.552 511.995 C 251.553 511.995 238.305 502.239 233.803 487.92 C 215.353 429.324 217.413 363.383 220.4 328.573 C 221.461 316.159 229.414 305.219 241.117 300.923 C 250.698 297.41 258.475 290.683 258.475 279.743 C 258.475 270.389 248.812 264.177 239.819 260.417 C 229.775 256.224 222.45 247.313 220.431 236.62 C 219.823 233.385 219.257 230.12 218.721 226.854 C 241.013 204.562 225.325 189.038 224.531 176.378 C 224.139 170.156 225.53 163.934 228.641 158.535 C 230.361 155.537 219.75 141.752 221.708 138.929 C 246.03 103.78 286.145 82.002 286.145 82.002 L 286.145 17.317 L 365.705 17.317 L 365.705 82.001 C 365.705 82.001 405.82 103.779 430.142 138.928 C 432.099 141.751 413.823 162.637 415.543 165.634 C 418.654 171.032 420.045 177.254 419.653 183.477 C 418.86 196.138 430.305 205.572 433.129 226.853 C 432.593 230.119 432.027 233.384 431.419 236.619 C 429.4 247.312 422.075 256.223 412.031 260.416 C 403.039 264.177 393.377 270.389 393.377 279.743 Z"
        fill="#95d6a4"/>
    <path
        id="path_10"
        d="M 286.311 34.349 L 365.706 34.349 L 365.706 55.826 L 286.311 55.826 Z"
        fill="#78c2a4"/>
    <path
        id="path_11"
        d="M 308.435 45.088 L 308.435 81.988 C 308.435 81.988 274.649 107.412 260.943 147.645 C 259.101 153.05 258.277 159.279 258.507 165.507 C 259.04 179.867 260.41 209.23 263.463 236.618 C 264.651 247.294 268.953 256.201 274.903 260.382 C 280.235 264.139 285.979 270.368 285.979 279.735 C 285.979 290.593 281.459 297.307 275.836 300.833 C 268.953 305.171 264.105 315.726 263.463 328.099 C 261.439 367.617 260.058 448.131 276.708 511.983 L 266.548 511.983 C 251.631 511.983 238.359 502.366 233.866 488.142 C 215.257 429.222 217.428 362.829 220.442 328.099 C 221.508 315.726 229.7 305.171 241.334 300.833 C 250.823 297.307 258.469 290.593 258.469 279.735 C 258.469 270.368 248.762 264.139 239.746 260.382 C 229.712 256.201 222.441 247.294 220.429 236.618 C 215.267 209.243 212.952 179.868 212.055 165.507 C 211.667 159.278 213.061 153.049 216.175 147.645 C 239.309 107.412 286.146 81.988 286.146 81.988 L 286.146 45.088 Z"
        fill="#78c2a4"/>
    <path
        id="path_12"
        d="M 439.786 165.507 C 438.993 178.168 437.097 202.5 433.131 226.854 L 218.721 226.854 C 214.755 202.501 212.859 178.168 212.066 165.507 C 211.674 159.285 213.065 153.063 216.176 147.664 C 217.896 144.666 219.751 141.751 221.708 138.928 L 430.143 138.928 C 432.1 141.751 433.955 144.666 435.675 147.664 C 438.786 153.063 440.177 159.285 439.786 165.507 Z"
        fill="#ffd064"/>
    <path
        id="path_13"
        d="M 356.521 0 L 295.33 0 C 285.768 0 278.016 7.752 278.016 17.314 L 278.016 45.097 L 373.836 45.097 L 373.836 17.314 C 373.835 7.752 366.083 0 356.521 0 Z"
        fill="#ffd064"/>
    <path
        id="path_14"
        d="M 329.651 0.005 C 320.09 0.005 312.334 7.749 312.334 17.31 L 312.334 45.097 L 278.015 45.097 L 278.015 17.31 C 278.015 7.749 285.771 0.005 295.332 0.005 L 329.651 0.005 Z"
        fill="#ffc250"/>
    <path
        id="path_15"
        d="M 258.506 165.507 C 258.98 178.168 260.103 202.5 262.452 226.854 L 218.721 226.854 C 214.755 202.501 212.859 178.168 212.066 165.507 C 211.674 159.285 213.065 153.063 216.176 147.664 C 217.896 144.666 219.751 141.751 221.708 138.928 L 264.316 138.928 C 263.1 141.751 261.967 144.656 260.947 147.643 C 259.104 153.053 258.28 159.275 258.506 165.507 Z"
        fill="#ffc250"/>
    <path
        id="path_16"
        d="M 453.978 315.642 C 453.056 315.642 452.119 315.476 451.207 315.125 C 447.224 313.594 445.236 309.123 446.768 305.14 L 456.08 280.924 C 457.61 276.942 462.08 274.952 466.064 276.486 C 470.047 278.017 472.035 282.488 470.503 286.471 L 461.191 310.687 C 460.011 313.757 457.083 315.642 453.978 315.642 Z"
        fill="#dbdbdb"/>
    <path
        id="path_17"
        d="M 500.32 440.821 C 499.414 457.345 497.827 473.848 495.571 490.28 C 493.861 502.714 483.25 511.996 470.703 511.996 L 379.986 511.996 C 367.428 511.996 356.828 502.714 355.118 490.28 C 347.546 435.269 347.546 379.485 355.118 324.474 C 356.828 312.04 367.428 302.768 379.986 302.768 L 470.703 302.768 C 483.251 302.768 493.861 312.04 495.571 324.474 C 497.415 337.907 498.816 351.382 499.753 364.888 C 500.59 376.832 483.597 392.939 483.727 404.904 C 483.872 418.262 501.054 427.479 500.32 440.821 Z"
        fill="#db5c6e"/>
    <path
        id="path_18"
        d="M 391.233 498.594 C 391.933 503.652 393.963 508.236 396.95 511.997 L 379.983 511.997 C 367.435 511.997 356.825 502.715 355.115 490.281 C 347.553 435.27 347.553 379.486 355.115 324.475 C 356.825 312.041 367.436 302.769 379.983 302.769 L 396.95 302.769 C 393.963 306.529 391.933 311.113 391.233 316.172 C 382.909 376.694 382.909 438.072 391.233 498.594 Z"
        fill="#d64553"/>
    <path
        id="path_19"
        d="M 500.32 440.821 C 492.501 446.611 482.817 450.051 472.341 450.051 C 446.381 450.051 425.345 429.015 425.345 403.065 C 425.345 377.105 446.381 356.069 472.341 356.069 C 482.571 356.069 492.038 359.335 499.754 364.887 C 501.525 390.167 501.711 415.53 500.32 440.821 Z"
        fill="#ededed"/>
    <path
        id="path_20"
        d="M 373.835 52.824 L 278.015 52.824 C 273.747 52.824 270.289 49.365 270.289 45.098 C 270.289 40.831 273.748 37.372 278.015 37.372 L 373.835 37.372 C 378.103 37.372 381.561 40.831 381.561 45.098 C 381.561 49.365 378.103 52.824 373.835 52.824 Z"
        fill="#ffd064"/>
    <path
        id="path_21"
        d="M 311.558 52.824 L 278.015 52.824 C 273.74 52.824 270.289 49.363 270.289 45.098 C 270.289 40.833 273.74 37.372 278.015 37.372 L 311.558 37.372 C 307.293 37.372 303.832 40.833 303.832 45.098 C 303.831 49.362 307.293 52.824 311.558 52.824 Z"
        fill="#ffc250"/>
    <path
        id="path_22"
        d="M 486.124 310.495 L 364.562 310.495 C 360.294 310.495 356.836 307.036 356.836 302.769 C 356.836 298.502 360.295 295.043 364.562 295.043 L 486.123 295.043 C 490.391 295.043 493.849 298.502 493.849 302.769 C 493.85 307.036 490.391 310.495 486.124 310.495 Z"
        fill="#ededed"/>
    <path
        id="path_23"
        d="M 402.03 310.495 L 364.562 310.495 C 360.297 310.495 356.836 307.044 356.836 302.769 C 356.836 298.504 360.297 295.043 364.562 295.043 L 402.03 295.043 C 397.765 295.043 394.304 298.504 394.304 302.769 C 394.304 307.044 397.765 310.495 402.03 310.495 Z"
        fill="#dbdbdb"/>
</svg>
