<svg
    xmlns="http://www.w3.org/2000/svg"
    viewBox="0 0 256 256"
    id="vector">
    <path
        id="path"
        d="M 31.3 52.6 L 57.7 26.2 C 59.6 24.3 62 22.8 64.6 21.9 L 93.5 12 C 88.5 21.1 92.6 32.3 94.8 37.2 C 95.4 38.6 97 39.1 98.4 38.5 L 108.4 34 L 114.6 42.4 L 114.6 171.5 C 114.6 171.5 89.6 169.5 67 158.9 C 64.6 157.7 63 155.3 63.1 152.5 L 65.2 76.5 C 65.2 75.7 64.6 75.1 63.8 75 C 63.5 75 63.2 75.1 63 75.2 L 54.4 81 C 52.9 82 51 81.7 49.9 80.3 L 31 57.1 C 30 55.7 30.1 53.8 31.3 52.6 Z"
        fill="#ef4460"/>
    <path
        id="path_1"
        d="M 108.3 33.9 L 114.5 42.3 L 120.7 33.9 C 138.7 10.3 124.1 2.5 124.1 2.5 L 105 2.5 C 105 2.5 90.4 10.4 108.3 33.9 Z"
        fill="#ef4460"/>
    <path
        id="path_2"
        d="M 134.2 96.8 L 224 96.8 L 224 108 L 134.2 108 Z"
        fill="#3a70bf"/>
    <path
        id="path_3"
        d="M 187.5 242.3 L 225.7 242.3 L 225.7 253.5 L 187.5 253.5 Z"
        fill="#3a70bf"/>
    <path
        id="path_4"
        d="M 132.5 242.3 L 170.7 242.3 L 170.7 253.5 L 132.5 253.5 Z"
        fill="#3a70bf"/>
    <path
        id="path_5"
        d="M 222.6 242.3 L 224 108.1 L 179.1 108.1 L 179.1 149.6 L 189.4 242.3 Z"
        fill="#5290db"/>
    <path
        id="path_6"
        d="M 135.6 242.3 L 168.7 242.3 L 179.1 149.6 L 179.1 108.1 L 134.2 108.1 Z"
        fill="#5290db"/>
    <path
        id="path_7"
        d="M 134.2 108.1 L 134.2 96.8 L 164.6 96.8 L 164 76.5 C 164 75.7 164.6 75.1 165.4 75 C 165.7 75 166 75.1 166.2 75.2 L 174.8 81 C 176.3 82 178.2 81.7 179.3 80.3 L 198 57.1 C 199.1 55.8 199 53.8 197.8 52.6 L 171.4 26.2 C 169.5 24.3 167.1 22.8 164.5 21.9 L 135.6 12 C 140.6 21.1 136.5 32.3 134.3 37.2 C 133.7 38.6 132.1 39.1 130.7 38.5 L 120.7 34 L 114.5 42.4 L 114.5 171.5 C 121.3 170.8 128.1 169.7 134.8 168.1 Z"
        fill="#ef4460"/>
    <path
        id="path_8"
        d="M 124.1 2.5 C 124.1 2.5 138.7 10.4 120.7 33.9 L 130.7 38.4 C 132.1 39 133.7 38.4 134.3 37.1 C 137.4 30.3 144.3 10.8 124.1 2.5 Z"
        fill="#fc657e"/>
    <path
        id="path_9"
        d="M 105 2.5 C 105 2.5 90.4 10.4 108.4 33.9 L 98.4 38.4 C 97 39 95.4 38.4 94.8 37.1 C 91.6 30.3 84.7 10.8 105 2.5 Z"
        fill="#fc657e"/>
    <path
        id="path_10"
        d="M 171.4 26.2 C 169.9 24.8 168.3 23.6 166.4 22.7 C 163.7 31.9 158.6 53.8 164.9 75.2 C 165.3 75 165.8 75.1 166.2 75.3 L 174.8 81.1 C 176.3 82.1 178.2 81.8 179.3 80.4 L 198 57.1 C 199.1 55.8 199 53.8 197.8 52.6 Z"
        fill="#fc657e"/>
    <path
        id="path_11"
        d="M 57.7 26.2 C 59.2 24.8 60.8 23.6 62.7 22.7 C 65.4 31.9 70.5 53.8 64.2 75.2 C 63.8 75 63.3 75.1 62.9 75.3 L 54.3 81.1 C 52.8 82.1 50.9 81.8 49.8 80.4 L 31 57.1 C 29.9 55.8 30 53.8 31.2 52.6 Z"
        fill="#fc657e"/>
    <path
        id="path_12"
        d="M 176.3 96.8 C 173.2 96.8 170.7 99.3 170.6 102.4 C 170.6 105.5 173.1 108 176.2 108.1 L 176.3 108.1 L 224 108.1 L 224 96.8 Z"
        fill="#3a70bf"/>
    <path
        id="path_13"
        d="M 188.1 102.5 C 188.1 99.4 185.6 96.9 182.5 96.9 L 176.3 96.9 C 173.2 96.9 170.7 99.4 170.6 102.5 C 170.6 105.6 173.1 108.1 176.2 108.2 L 176.3 108.2 L 182.5 108.2 C 185.6 108.1 188.1 105.6 188.1 102.5 Z"
        fill="#29589f"/>
    <path
        id="path_14"
        d="M 211.7 122 C 211.7 129 216.8 135 223.8 136 L 224.1 108.1 L 211.7 108.1 Z"
        fill="#29589f"/>
    <path
        id="path_15"
        d="M 146.5 122 C 146.5 129 141.4 135 134.4 136 L 134.1 108.1 L 146.5 108.1 Z"
        fill="#29589f"/>
    <path
        id="path_16"
        d="M 168.4 136.7 L 179.1 145 L 179.1 108.1 L 168.4 108.1 Z"
        fill="#3a70bf"/>
    <path
        id="path_17"
        d="M 49 108.4 M 45.9 108.4 C 45.9 107.578 46.227 106.789 46.808 106.208 C 47.389 105.627 48.178 105.3 49 105.3 C 49.822 105.3 50.611 105.627 51.192 106.208 C 51.773 106.789 52.1 107.578 52.1 108.4 C 52.1 109.222 51.773 110.011 51.192 110.592 C 50.611 111.173 49.822 111.5 49 111.5 C 48.178 111.5 47.389 111.173 46.808 110.592 C 46.227 110.011 45.9 109.222 45.9 108.4"
        fill="#f5c84c"/>
    <path
        id="path_18"
        d="M 118 209.4 M 114.9 209.4 C 114.9 208.578 115.227 207.789 115.808 207.208 C 116.389 206.627 117.178 206.3 118 206.3 C 118.822 206.3 119.611 206.627 120.192 207.208 C 120.773 207.789 121.1 208.578 121.1 209.4 C 121.1 210.222 120.773 211.011 120.192 211.592 C 119.611 212.173 118.822 212.5 118 212.5 C 117.178 212.5 116.389 212.173 115.808 211.592 C 115.227 211.011 114.9 210.222 114.9 209.4"
        fill="#87d147"/>
    <path
        id="path_19"
        d="M 223 57.4 M 219.9 57.4 C 219.9 56.578 220.227 55.789 220.808 55.208 C 221.389 54.627 222.178 54.3 223 54.3 C 223.822 54.3 224.611 54.627 225.192 55.208 C 225.773 55.789 226.1 56.578 226.1 57.4 C 226.1 58.222 225.773 59.011 225.192 59.592 C 224.611 60.173 223.822 60.5 223 60.5 C 222.178 60.5 221.389 60.173 220.808 59.592 C 220.227 59.011 219.9 58.222 219.9 57.4"
        fill="#fc657e"/>
    <path
        id="path_20"
        d="M 216.8 30.3 C 212.5 29.5 209 26.2 208.2 21.8 C 208.2 21.7 208.1 21.6 208 21.6 C 207.9 21.6 207.9 21.7 207.8 21.8 C 206.9 26.1 203.5 29.5 199.2 30.3 C 199.1 30.3 199 30.4 199 30.5 C 199 30.6 199.1 30.6 199.2 30.7 C 203.5 31.5 207 34.8 207.8 39.2 C 207.8 39.3 207.9 39.4 208 39.4 C 208.1 39.4 208.1 39.3 208.2 39.2 C 209.1 34.9 212.5 31.5 216.8 30.7 C 216.9 30.7 217 30.6 217 30.5 C 217 30.4 216.9 30.3 216.8 30.3 Z"
        fill="#f5c84c"/>
    <path
        id="path_21"
        d="M 98.9 186 L 96.8 186 L 96.8 183.9 C 96.8 182.3 95.5 181 93.9 181 C 92.3 181 91 182.3 91 183.9 L 91 186 L 88.9 186 C 87.3 186 86 187.3 86 188.9 C 86 190.5 87.3 191.8 88.9 191.8 L 91 191.8 L 91 193.9 C 91 195.5 92.3 196.8 93.9 196.8 C 95.5 196.8 96.8 195.5 96.8 193.9 L 96.8 191.8 L 98.9 191.8 C 100.5 191.8 101.8 190.5 101.8 188.9 C 101.8 187.3 100.5 186 98.9 186 Z"
        fill="#70d6f9"/>
    <path
        id="path_22"
        d="M 185 242.3 L 185 253.5 C 185 254.9 186.1 256 187.5 256 L 225.7 256 C 227.1 256 228.2 254.9 228.2 253.5 L 228.2 242.3 C 228.2 240.9 227.1 239.8 225.7 239.8 L 225.1 239.8 L 226.2 136 C 226.9 70.3 226.1 143.3 226.5 96.8 C 226.5 95.4 225.4 94.3 224 94.3 L 167 94.3 L 166.6 78.5 L 173.5 83.1 C 176 84.8 179.4 84.3 181.3 81.9 L 199.9 58.6 C 201.8 56.3 201.6 52.9 199.5 50.8 L 173.1 24.4 C 170.9 22.2 168.2 20.6 165.3 19.5 L 137.2 9.9 C 134.6 5.7 130.5 2.4 125 0.2 C 124.7 0.1 124.4 0 124.1 0 L 105 0 C 104.7 0 104.4 0.1 104 0.2 C 98.4 2.5 94.4 5.7 91.8 9.9 L 63.7 19.5 C 60.8 20.5 58.1 22.2 55.9 24.4 L 29.5 50.8 C 27.4 52.9 27.2 56.3 29.1 58.6 L 47.7 81.9 C 49.6 84.3 53 84.8 55.5 83.1 L 62.4 78.5 L 60.4 152.4 C 60.3 156.1 62.4 159.5 65.7 161.1 C 88.5 171.8 113.2 173.9 114.2 173.9 L 114.4 173.9 C 114.4 173.9 114.5 173.9 114.6 173.9 C 120.5 173.3 126.4 172.4 132.2 171.1 L 132.9 239.6 L 132.3 239.6 C 130.9 239.6 129.8 240.7 129.8 242.1 L 129.8 253.3 C 129.8 254.7 130.9 255.8 132.3 255.8 L 170.5 255.8 C 171.9 255.8 173 254.7 173 253.3 L 173 242.1 C 173 241.1 172.3 240.1 171.4 239.8 L 179 172 L 186.6 239.8 C 185.7 240.3 185 241.2 185 242.3 Z M 223.2 251 L 190 251 L 190 244.8 L 223.2 244.8 Z M 214.2 110.6 L 221.5 110.6 L 221.3 132.7 C 217 130.9 214.2 126.6 214.2 122 Z M 221.5 105.6 L 189.9 105.6 C 190.7 103.6 190.7 101.4 189.9 99.4 L 221.5 99.4 Z M 182.5 99.3 C 184.2 99.3 185.6 100.7 185.7 102.4 C 185.7 104.1 184.3 105.5 182.6 105.6 C 182.6 105.6 182.6 105.6 182.5 105.6 L 176.3 105.6 C 174.6 105.6 173.2 104.2 173.2 102.4 C 173.2 100.7 174.6 99.3 176.3 99.3 Z M 176.6 139.9 L 170.9 135.5 L 170.9 110.6 L 176.6 110.6 Z M 136.7 110.6 L 144 110.6 L 144 122 C 144 126.7 141.2 130.9 136.9 132.7 Z M 136.7 105.6 L 136.7 99.4 L 168.8 99.4 C 168 101.4 168 103.6 168.8 105.6 Z M 196 55.5 L 177.4 78.8 C 177.1 79.2 176.6 79.2 176.2 79 L 167.6 73.2 C 167.4 73.1 167.2 72.9 166.9 72.8 C 166.9 72.8 166.9 72.8 166.8 72.8 C 162 54.6 165.4 36.1 167.9 26.5 C 168.5 26.9 169.1 27.4 169.6 27.9 L 196 54.4 C 196.3 54.7 196.3 55.2 196 55.5 Z M 132 36.1 C 132 36.2 131.8 36.3 131.7 36.2 L 124.5 32.9 C 128.9 26.7 133 18.7 132 11.1 C 137.4 18 135.7 28.1 132 36.1 Z M 102.1 10.9 C 102.6 8.6 103.8 6.5 105.7 5 L 123.3 5 C 125.5 6.7 126.8 9.2 127.1 11.9 C 128.2 22.2 117 34.2 114.5 38.1 C 111.9 34 100 21.3 102.1 10.9 Z M 104.5 32.9 L 97.3 36.2 C 97.2 36.2 97.1 36.2 97 36.1 C 93.3 28.1 91.5 18 97 11.1 C 96 18.7 100.2 26.7 104.5 32.9 Z M 52.8 79 C 52.4 79.2 51.9 79.2 51.6 78.8 L 33 55.5 C 32.7 55.2 32.7 54.7 33.1 54.3 L 59.4 28 C 59.9 27.5 60.5 27 61.1 26.6 C 63.6 36.2 67 54.7 62.2 72.9 C 61.9 73 61.7 73.1 61.4 73.3 Z M 65.5 152.6 L 67.6 76.6 C 67.6 75.8 67.4 75.1 67 74.4 C 72.4 54.2 68.4 33.9 65.7 24.1 L 89.3 16 C 87.6 23.2 89.4 31.3 92.6 38.1 C 93.8 40.7 96.9 41.8 99.5 40.7 L 107.6 37 L 112.1 43.1 L 112.1 168.7 C 105.1 167.9 85.7 164.9 68 156.6 C 66.4 155.9 65.4 154.3 65.5 152.6 Z M 117 168.7 L 117 43.2 L 121.5 37.1 L 129.6 40.8 C 132.2 42 135.3 40.8 136.5 38.2 C 136.8 37.6 137.1 36.9 137.3 36.4 C 139.4 31.4 141.6 23.6 139.8 16 L 163.4 24.1 C 160.7 33.9 156.7 54.2 162.1 74.4 C 161.7 75 161.5 75.8 161.5 76.6 L 162 94.3 L 134.2 94.3 C 132.8 94.3 131.7 95.4 131.7 96.8 L 132 136 L 132.3 166.1 C 125.6 167.6 120.1 168.4 117 168.7 Z M 137 137.9 C 144.1 135.8 149 129.3 149 121.9 L 149 110.5 L 165.9 110.5 L 165.9 136.6 C 165.9 137.4 166.3 138.1 166.9 138.6 L 176.6 146.1 L 176.6 149.4 L 166.5 239.7 L 138.1 239.7 Z M 168.2 251 L 135 251 L 135 244.8 L 168.2 244.8 Z M 181.6 110.6 L 209.2 110.6 L 209.2 122 C 209.2 129.4 214.1 135.9 221.2 138 L 220.1 239.8 L 191.7 239.8 L 181.6 149.5 Z"
        fill="#000000"/>
</svg>
