<svg
    xmlns="http://www.w3.org/2000/svg"
    viewBox="0 0 510 510"
    id="vector">
    <path
        id="path"
        d="M 502.093 318.121 C 502.329 317.211 502.556 316.295 502.781 315.378 C 502.559 316.295 502.326 317.208 502.093 318.121 Z"
        fill="#afe6ff"/>
    <path
        id="path_1"
        d="M 510 255 C 510 114.167 395.833 0 255 0 C 156.869 0 96.426 55.347 96.259 55.441 C 92.472 72.922 85.885 98.291 85.885 116.906 C 85.885 257.739 204.648 371.878 345.481 371.878 C 405.498 371.878 460.64 343.934 504.2 309.239 C 504.377 308.152 510 285.762 510 255 Z"
        fill="#add841"/>
    <path
        id="path_2"
        d="M 504.2 309.239 C 460.641 343.935 405.476 364.68 345.459 364.68 C 204.626 364.68 90.459 250.513 90.459 109.68 C 90.459 91.065 92.472 72.923 96.259 55.441 C 96.253 55.446 96.248 55.451 96.242 55.455 C 37.597 102.175 0 174.192 0 255 C 0 395.833 114.167 510 255 510 C 324.293 510 387.121 482.357 433.072 437.5 C 434.112 436.485 434.777 433.993 435.8 432.96 C 437.128 431.618 438.808 431.73 440.107 430.359 C 469.518 399.313 491.205 360.875 502.094 318.121 C 502.327 317.208 502.56 316.295 502.782 315.378 C 502.888 314.942 503.849 310.855 504.2 309.239 Z"
        fill="#6dc54a"/>
    <path
        id="path_3"
        d="M 199.402 136.166 C 199.402 168 162.186 193.806 162.186 193.806 C 162.186 193.806 143.561 168 143.561 136.166 C 143.561 104.332 162.186 78.526 162.186 78.526 C 162.186 78.526 199.402 104.333 199.402 136.166 Z"
        fill="#51c422"/>
    <path
        id="path_4"
        d="M 124.971 136.166 C 124.971 168 162.187 193.806 162.187 193.806 L 162.187 78.526 C 162.186 78.526 124.971 104.333 124.971 136.166 Z"
        fill="#37aa1b"/>
    <path
        id="path_5"
        d="M 401.096 68.87 C 385.726 61.973 367.274 70.477 362.948 87.251 C 352.201 128.92 336.078 169.014 317.366 207.765 L 281.432 282.178 L 309.884 295.918 L 348.523 215.904 C 366.465 178.749 388.528 143.85 412.367 110.173 C 422.448 95.93 417.045 76.027 401.096 68.87 Z"
        fill="#ffffff"/>
    <path
        id="path_6"
        d="M 415.944 200.398 C 414.677 200.398 413.424 200.456 412.178 200.541 L 412.178 228.741 C 413.41 228.569 414.666 228.473 415.944 228.473 C 430.861 228.473 442.998 240.609 442.998 255.526 C 442.998 270.443 430.861 282.579 415.944 282.579 C 414.666 282.579 413.41 282.483 412.178 282.311 L 412.178 310.511 C 413.424 310.596 414.677 310.654 415.944 310.654 C 446.341 310.654 471.072 285.924 471.072 255.526 C 471.072 225.128 446.342 200.398 415.944 200.398 Z"
        fill="#ff956a"/>
    <path
        id="path_7"
        d="M 414.177 282.515 C 400.081 281.601 388.89 269.849 388.89 255.526 C 388.89 241.203 400.081 229.451 414.177 228.537 L 414.177 200.443 C 384.596 201.381 360.816 225.721 360.816 255.527 C 360.816 285.333 384.596 309.672 414.177 310.611 Z"
        fill="#ff7c48"/>
    <path
        id="path_8"
        d="M 171.738 179.088 L 403.008 179.088 L 403.008 221.076 L 171.738 221.076 Z"
        fill="#fcb54c"/>
    <path
        id="path_9"
        d="M 171.738 239.486 L 171.738 317.204 C 171.738 358.224 204.214 392.296 245.222 393.317 C 246.316 393.344 247.412 393.36 248.512 393.364 C 332.97 393.691 402.152 323.772 402.989 239.486 Z"
        fill="#fcb54c"/>
    <path
        id="path_10"
        d="M 95.231 179.088 L 174.231 179.088 L 174.231 191.611 L 95.231 191.611 Z"
        fill="#ff956a"/>
    <path
        id="path_11"
        d="M 174.231 239.476 L 174.231 208.18 L 95.231 208.18 L 95.231 239.476 C 95.231 324.466 164.129 393.365 249.12 393.365 C 262.776 393.365 276.014 391.577 288.62 388.238 C 222.771 370.799 174.231 310.809 174.231 239.476 Z"
        fill="#ff956a"/>
    <path
        id="path_12"
        d="M 204.105 376.161 L 204.105 381.156 C 204.105 397.526 217.375 410.796 233.745 410.796 L 360.382 410.796 C 379.51 410.796 395.017 395.289 395.017 376.161 Z"
        fill="#ff7c48"/>
    <path
        id="path_13"
        d="M 205.339 376.161 L 108.339 376.161 C 108.339 395.289 123.846 410.796 142.974 410.796 L 239.974 410.796 C 220.846 410.796 205.339 395.29 205.339 376.161 Z"
        fill="#e5554e"/>
    <path
        id="path_14"
        d="M 428.686 357.119 C 428.686 326.559 403.824 301.696 373.263 301.696 C 342.702 301.696 317.84 326.559 317.84 357.119 L 317.84 392.263 L 327.84 392.263 L 327.84 357.119 C 327.84 332.073 348.217 311.696 373.263 311.696 C 398.309 311.696 418.686 332.072 418.686 357.119 L 418.686 399.918 C 418.686 414.339 424.131 427.508 433.065 437.493 C 435.456 435.159 437.803 432.779 440.101 430.353 C 433 422.197 428.686 411.555 428.686 399.918 Z"
        fill="#ffffff"/>
    <path
        id="path_15"
        d="M 322.84 444.602 L 322.84 359.834 L 270.572 428.417 Z"
        fill="#e1faff"/>
    <path
        id="path_16"
        d="M 375.108 428.417 L 322.84 359.834 L 322.84 444.602 Z"
        fill="#ffffff"/>
    <path
        id="path_17"
        d="M 270.572 428.417 L 229.213 482.686 L 322.84 509.29 L 322.84 442.417 Z"
        fill="#aa321e"/>
    <path
        id="path_18"
        d="M 375.108 428.417 L 322.84 442.417 L 322.84 509.29 L 416.467 482.686 Z"
        fill="#c8462d"/>
    <path
        id="path_19"
        d="M 94.885 219.695 L 403.008 219.695 L 403.008 240.473 L 94.885 240.473 Z"
        fill="#ff956a"/>
    <path
        id="path_20"
        d="M 134.438 114.23 C 156.948 136.74 148.88 181.303 148.88 181.303 C 148.88 181.303 117.394 179.49 94.885 156.98 C 72.376 134.47 67.365 99.788 67.365 99.788 C 67.365 99.788 111.929 91.721 134.438 114.23 Z"
        fill="#51c422"/>
    <path
        id="path_21"
        d="M 81.808 166.861 C 104.318 189.371 148.881 181.303 148.881 181.303 L 67.366 99.788 C 67.366 99.788 59.298 144.352 81.808 166.861 Z"
        fill="#37aa1b"/>
    <path
        id="path_22"
        d="M 257.1 24.295 C 261.163 39.992 251.414 42.605 252.984 58.95 C 254.858 74 264.329 74.223 264.599 93.607 C 264.352 113.279 254.9 112.966 253.005 128.262 C 251.486 144.445 261.158 147.346 257.1 162.918 C 256.221 159.87 255.265 156.99 253.904 154.463 C 249.624 146.444 242.704 143.917 241.196 128.263 C 239.875 109.336 249.355 109.01 249.602 93.606 C 249.384 77.993 239.889 77.857 241.218 58.951 C 243.112 39.625 251.879 42.501 257.1 24.295 Z"
        fill="#ffffff"/>
    <path
        id="path_23"
        d="M 94.885 191.126 L 403.008 191.126 L 403.008 209.306 L 94.885 209.306 Z"
        fill="#fcb54c"/>
</svg>
