<svg
    xmlns="http://www.w3.org/2000/svg"
    viewBox="0 0 512 512"
    id="vector">
    <path
        id="path"
        d="M 417.741 418.596 C 416.922 440.47 425.554 458.314 438.486 475.173 C 443.097 481.183 448.247 487.069 453.718 492.965 C 459.987 500.54 454.609 512 444.776 512 L 67.224 512 C 57.39 512 52.012 500.54 58.282 492.965 C 63.774 487.048 68.945 481.163 73.545 475.173 C 86.508 458.304 95.088 440.574 94.259 418.596 L 94.259 168.612 C 94.259 138.562 83.762 109.455 64.582 86.327 L 64.572 86.327 C 58.769 79.322 55.588 70.504 55.588 61.406 L 55.588 13.243 C 55.587 5.927 61.514 0 68.83 0 L 443.17 0 C 450.486 0 456.413 5.927 456.413 13.243 L 456.413 61.406 C 456.413 70.504 453.232 79.322 447.429 86.327 L 447.419 86.327 C 428.239 109.455 417.742 138.562 417.742 168.612 L 417.741 418.596 L 417.741 418.596 Z"
        fill="#ff0c38"/>
    <path
        id="path_1"
        d="M 456.413 13.243 L 456.413 60.121 C 455.315 60.95 454.714 61.406 454.714 61.406 L 55.587 61.406 L 55.587 13.243 C 55.587 5.927 61.514 0 68.83 0 L 443.17 0 C 450.486 0 456.413 5.927 456.413 13.243 Z"
        fill="#a5001e"/>
    <path
        id="path_2"
        d="M 453.719 492.965 C 448.248 487.069 443.098 481.183 438.487 475.173 L 130.512 475.173 C 120.597 475.173 114.297 464.726 118.744 455.863 C 124.415 444.561 127.615 432.419 127.096 418.596 L 127.096 168.612 C 127.096 138.562 116.599 109.455 97.419 86.327 L 97.409 86.327 C 91.606 79.322 88.425 70.504 88.425 61.406 L 88.425 13.243 C 88.425 5.927 94.352 0 101.667 0 L 68.83 0 C 61.516 0 55.587 5.929 55.587 13.243 L 55.587 61.406 C 55.587 70.504 58.768 79.322 64.571 86.327 L 64.581 86.327 C 83.761 109.455 94.258 138.562 94.258 168.612 L 94.258 418.597 C 95.39 448.727 78.733 470.933 58.281 492.966 C 52.012 500.54 57.39 512 67.224 512 C 83.7 512 425.882 512 444.776 512 C 454.61 512 459.988 500.54 453.719 492.965 Z"
        fill="#c70024"/>
    <path
        id="path_3"
        d="M 138.902 101.604 C 138.902 98.709 141.611 95.999 148.244 95.999 C 155.904 95.999 157.678 99.549 161.041 99.549 C 165.152 99.549 166.833 94.411 166.833 91.888 C 166.833 84.602 153.194 83.668 148.244 83.668 C 136.566 83.668 124.33 88.993 124.33 103.005 C 124.33 124.864 153.942 122.902 153.942 134.204 C 153.942 138.688 149.178 140.369 144.88 140.369 C 136.192 140.369 133.391 133.456 129 133.456 C 125.45 133.456 122.648 138.126 122.648 141.302 C 122.648 147.467 132.923 153.445 145.161 153.445 C 158.706 153.445 168.514 146.158 168.514 132.707 C 168.514 109.171 138.902 110.946 138.902 101.604 Z"
        fill="#ffcd00"/>
    <path
        id="path_4"
        d="M 216.157 84.229 C 212.514 84.229 208.871 85.537 208.871 88.619 L 208.871 120.379 L 193.738 91.514 C 190.188 84.695 188.227 84.227 182.996 84.227 C 179.353 84.227 175.71 85.629 175.71 88.711 L 175.71 148.029 C 175.71 151.018 179.353 152.513 182.996 152.513 C 186.638 152.513 190.283 151.019 190.283 148.029 L 190.283 116.268 L 208.031 148.589 C 209.806 151.858 212.795 152.512 216.158 152.512 C 219.801 152.512 223.445 151.018 223.445 148.028 L 223.445 88.621 C 223.443 85.538 219.799 84.229 216.157 84.229 Z"
        fill="#ffcd00"/>
    <path
        id="path_5"
        d="M 265.481 88.526 C 264.453 85.257 260.249 83.668 255.953 83.668 C 251.657 83.668 247.452 85.257 246.425 88.526 L 229.05 145.508 C 228.957 145.882 228.862 146.255 228.862 146.536 C 228.862 149.992 234.187 152.515 238.203 152.515 C 240.539 152.515 242.408 151.768 242.967 149.806 L 246.143 138.129 L 265.853 138.129 L 269.029 149.806 C 269.59 151.768 271.458 152.515 273.793 152.515 C 277.809 152.515 283.134 149.993 283.134 146.536 C 283.134 146.255 283.04 145.882 282.946 145.508 L 265.481 88.526 Z M 249.134 126.92 L 255.953 101.885 L 262.772 126.92 L 249.134 126.92 Z"
        fill="#ffcd00"/>
    <path
        id="path_6"
        d="M 310.788 96.934 C 318.728 96.934 319.009 102.913 319.102 105.341 C 319.29 108.705 322.464 109.731 326.388 109.731 C 331.339 109.731 333.675 108.423 333.675 102.818 C 333.675 90.954 323.586 84.229 310.228 84.229 C 297.99 84.229 287.809 90.208 287.809 106.274 L 287.809 131.028 C 287.809 147.095 297.991 153.073 310.228 153.073 C 323.587 153.073 333.675 145.973 333.675 133.55 C 333.675 127.945 331.339 126.637 326.295 126.637 C 322.559 126.637 319.382 127.571 319.103 131.027 C 318.822 134.67 318.356 140.368 310.883 140.368 C 305.465 140.368 302.382 137.379 302.382 131.027 L 302.382 106.273 C 302.382 99.922 305.463 96.934 310.788 96.934 Z"
        fill="#ffcd00"/>
    <path
        id="path_7"
        d="M 388.604 143.36 L 369.267 113.748 L 384.586 94.505 C 385.334 93.477 385.521 92.45 385.521 91.702 C 385.521 88.059 380.663 84.229 376.927 84.229 C 375.433 84.229 374.125 84.79 373.097 86.284 L 355.63 111.039 L 355.63 88.621 C 355.63 85.538 351.986 84.231 348.343 84.231 C 344.701 84.231 341.057 85.539 341.057 88.621 L 341.057 148.031 C 341.057 151.02 344.7 152.515 348.343 152.515 C 351.985 152.515 355.63 151.021 355.63 148.031 L 355.63 131.123 L 359.553 126.079 L 375.526 150.367 C 376.74 152.329 378.609 153.076 380.57 153.076 C 384.774 153.076 389.351 149.433 389.351 145.789 C 389.35 144.948 389.072 144.107 388.604 143.36 Z"
        fill="#ffcd00"/>
    <path
        id="path_8"
        d="M 68.83 0 C 61.514 0 55.587 5.927 55.587 13.243 L 55.587 61.406 L 88.424 61.406 L 88.424 13.243 C 88.425 5.927 94.352 0 101.667 0 L 68.83 0 Z"
        fill="#830018"/>
    <path
        id="path_9"
        d="M 303.414 262.3 L 255.301 278.582 C 251.265 279.948 247.265 276.433 248.1 272.255 L 258.056 222.447 L 268.012 172.639 C 268.847 168.461 273.891 166.754 277.092 169.567 L 315.249 203.093 L 353.406 236.619 C 356.607 239.431 355.562 244.653 351.527 246.018 L 303.414 262.3 Z"
        fill="#ffb655"/>
    <path
        id="path_10"
        d="M 218.119 436.705 L 204.779 485.715 C 203.66 489.826 198.511 491.184 195.51 488.159 L 159.736 452.1 L 123.962 416.041 C 120.961 413.016 122.36 407.878 126.48 406.792 L 175.595 393.839 L 224.71 380.887 C 228.83 379.801 232.58 383.581 231.461 387.692 L 218.119 436.705 Z"
        fill="#ffb655"/>
    <path
        id="path_11"
        d="M 321.619 414.436 L 262.384 434.481 C 257.415 436.163 252.49 431.835 253.518 426.692 L 265.775 365.371 L 278.032 304.05 C 279.06 298.906 285.271 296.805 289.211 300.267 L 336.187 341.543 L 383.163 382.819 C 387.104 386.281 385.818 392.711 380.85 394.391 L 321.619 414.436 Z"
        fill="#ffb655"/>
    <path
        id="path_12"
        d="M 175.715 340.085 L 126.322 328.238 C 122.179 327.244 120.665 322.139 123.598 319.048 L 158.553 282.195 L 193.508 245.342 C 196.439 242.251 201.618 243.493 202.83 247.578 L 217.267 296.277 L 231.704 344.976 C 232.915 349.061 229.25 352.925 225.108 351.931 L 175.715 340.085 Z"
        fill="#ffb655"/>
    <path
        id="path_13"
        d="M 385.484 438.823 L 384.769 491.918 L 384.5 512 L 311.655 512 L 284.061 495.576 C 280.237 493.296 280.31 487.732 284.196 485.556 L 330.535 459.62 L 376.874 433.694 C 380.759 431.518 385.547 434.367 385.484 438.823 Z"
        fill="#ffb655"/>
    <path
        id="path_14"
        d="M 287.444 214.733 M 281.238 214.733 C 281.238 213.423 281.653 212.145 282.423 211.085 C 283.193 210.025 284.28 209.236 285.526 208.831 C 286.772 208.426 288.116 208.426 289.362 208.831 C 290.608 209.236 291.695 210.025 292.465 211.085 C 293.235 212.145 293.65 213.423 293.65 214.733 C 293.65 216.043 293.235 217.321 292.465 218.381 C 291.695 219.441 290.608 220.23 289.362 220.635 C 288.116 221.04 286.772 221.04 285.526 220.635 C 284.28 220.23 283.193 219.441 282.423 218.381 C 281.653 217.321 281.238 216.043 281.238 214.733"
        fill="#ee8700"/>
    <path
        id="path_15"
        d="M 281.237 240.649 M 275.031 240.649 C 275.031 239.339 275.446 238.061 276.216 237.001 C 276.986 235.941 278.073 235.152 279.319 234.747 C 280.565 234.342 281.909 234.342 283.155 234.747 C 284.401 235.152 285.488 235.941 286.258 237.001 C 287.028 238.061 287.443 239.339 287.443 240.649 C 287.443 241.959 287.028 243.237 286.258 244.297 C 285.488 245.357 284.401 246.146 283.155 246.551 C 281.909 246.956 280.565 246.956 279.319 246.551 C 278.073 246.146 276.986 245.357 276.216 244.297 C 275.446 243.237 275.031 241.959 275.031 240.649"
        fill="#ee8700"/>
    <path
        id="path_16"
        d="M 310.738 234.442 M 304.532 234.442 C 304.532 233.132 304.947 231.854 305.717 230.794 C 306.487 229.734 307.574 228.945 308.82 228.54 C 310.066 228.135 311.41 228.135 312.656 228.54 C 313.902 228.945 314.989 229.734 315.759 230.794 C 316.529 231.854 316.944 233.132 316.944 234.442 C 316.944 235.752 316.529 237.03 315.759 238.09 C 314.989 239.15 313.902 239.939 312.656 240.344 C 311.41 240.749 310.066 240.749 308.82 240.344 C 307.574 239.939 306.487 239.15 305.717 238.09 C 304.947 237.03 304.532 235.752 304.532 234.442"
        fill="#ee8700"/>
    <path
        id="path_17"
        d="M 360.123 483.919 M 353.917 483.919 C 353.917 482.274 354.571 480.694 355.735 479.531 C 356.898 478.367 358.478 477.713 360.123 477.713 C 361.768 477.713 363.348 478.367 364.511 479.531 C 365.675 480.694 366.329 482.274 366.329 483.919 C 366.329 485.564 365.675 487.144 364.511 488.307 C 363.348 489.471 361.768 490.125 360.123 490.125 C 358.478 490.125 356.898 489.471 355.735 488.307 C 354.571 487.144 353.917 485.564 353.917 483.919"
        fill="#ee8700"/>
    <path
        id="path_18"
        d="M 335.006 492.809 M 328.8 492.809 C 328.8 491.499 329.215 490.221 329.985 489.161 C 330.755 488.101 331.842 487.312 333.088 486.907 C 334.334 486.502 335.678 486.502 336.924 486.907 C 338.17 487.312 339.257 488.101 340.027 489.161 C 340.797 490.221 341.212 491.499 341.212 492.809 C 341.212 494.119 340.797 495.397 340.027 496.457 C 339.257 497.517 338.17 498.306 336.924 498.711 C 335.678 499.116 334.334 499.116 333.088 498.711 C 331.842 498.306 330.755 497.517 329.985 496.457 C 329.215 495.397 328.8 494.119 328.8 492.809"
        fill="#ee8700"/>
    <path
        id="path_19"
        d="M 299.163 360.921 M 292.957 360.921 C 292.957 359.276 293.611 357.696 294.775 356.533 C 295.938 355.369 297.518 354.715 299.163 354.715 C 300.808 354.715 302.388 355.369 303.551 356.533 C 304.715 357.696 305.369 359.276 305.369 360.921 C 305.369 362.566 304.715 364.146 303.551 365.309 C 302.388 366.473 300.808 367.127 299.163 367.127 C 297.518 367.127 295.938 366.473 294.775 365.309 C 293.611 364.146 292.957 362.566 292.957 360.921"
        fill="#ee8700"/>
    <path
        id="path_20"
        d="M 299.806 387.562 M 293.6 387.562 C 293.6 386.252 294.015 384.974 294.785 383.914 C 295.555 382.854 296.642 382.065 297.888 381.66 C 299.134 381.255 300.478 381.255 301.724 381.66 C 302.97 382.065 304.057 382.854 304.827 383.914 C 305.597 384.974 306.012 386.252 306.012 387.562 C 306.012 388.872 305.597 390.15 304.827 391.21 C 304.057 392.27 302.97 393.059 301.724 393.464 C 300.478 393.869 299.134 393.869 297.888 393.464 C 296.642 393.059 295.555 392.27 294.785 391.21 C 294.015 390.15 293.6 388.872 293.6 387.562"
        fill="#ee8700"/>
    <path
        id="path_21"
        d="M 326.737 373.998 M 320.531 373.998 C 320.531 372.688 320.946 371.41 321.716 370.35 C 322.486 369.29 323.573 368.501 324.819 368.096 C 326.065 367.691 327.409 367.691 328.655 368.096 C 329.901 368.501 330.988 369.29 331.758 370.35 C 332.528 371.41 332.943 372.688 332.943 373.998 C 332.943 375.308 332.528 376.586 331.758 377.646 C 330.988 378.706 329.901 379.495 328.655 379.9 C 327.409 380.305 326.065 380.305 324.819 379.9 C 323.573 379.495 322.486 378.706 321.716 377.646 C 320.946 376.586 320.531 375.308 320.531 373.998"
        fill="#ee8700"/>
    <path
        id="path_22"
        d="M 192.382 415.83 M 186.176 415.83 C 186.176 414.185 186.83 412.605 187.994 411.442 C 189.157 410.278 190.737 409.624 192.382 409.624 C 194.027 409.624 195.607 410.278 196.77 411.442 C 197.934 412.605 198.588 414.185 198.588 415.83 C 198.588 417.475 197.934 419.055 196.77 420.218 C 195.607 421.382 194.027 422.036 192.382 422.036 C 190.737 422.036 189.157 421.382 187.994 420.218 C 186.83 419.055 186.176 417.475 186.176 415.83"
        fill="#ee8700"/>
    <path
        id="path_23"
        d="M 168.125 426.876 M 161.919 426.876 C 161.919 425.231 162.573 423.651 163.737 422.488 C 164.9 421.324 166.48 420.67 168.125 420.67 C 169.77 420.67 171.35 421.324 172.513 422.488 C 173.677 423.651 174.331 425.231 174.331 426.876 C 174.331 428.521 173.677 430.101 172.513 431.264 C 171.35 432.428 169.77 433.082 168.125 433.082 C 166.48 433.082 164.9 432.428 163.737 431.264 C 162.573 430.101 161.919 428.521 161.919 426.876"
        fill="#ee8700"/>
    <path
        id="path_24"
        d="M 191.17 446.325 M 184.964 446.325 C 184.964 444.68 185.618 443.1 186.782 441.937 C 187.945 440.773 189.525 440.119 191.17 440.119 C 192.815 440.119 194.395 440.773 195.558 441.937 C 196.722 443.1 197.376 444.68 197.376 446.325 C 197.376 447.97 196.722 449.55 195.558 450.713 C 194.395 451.877 192.815 452.531 191.17 452.531 C 189.525 452.531 187.945 451.877 186.782 450.713 C 185.618 449.55 184.964 447.97 184.964 446.325"
        fill="#ee8700"/>
    <path
        id="path_25"
        d="M 186.465 291.112 M 180.259 291.112 C 180.259 289.467 180.913 287.887 182.077 286.724 C 183.24 285.56 184.82 284.906 186.465 284.906 C 188.11 284.906 189.69 285.56 190.853 286.724 C 192.017 287.887 192.671 289.467 192.671 291.112 C 192.671 292.757 192.017 294.337 190.853 295.5 C 189.69 296.664 188.11 297.318 186.465 297.318 C 184.82 297.318 183.24 296.664 182.077 295.5 C 180.913 294.337 180.259 292.757 180.259 291.112"
        fill="#ee8700"/>
    <path
        id="path_26"
        d="M 168.083 310.406 M 161.877 310.406 C 161.877 308.761 162.531 307.181 163.695 306.018 C 164.858 304.854 166.438 304.2 168.083 304.2 C 169.728 304.2 171.308 304.854 172.471 306.018 C 173.635 307.181 174.289 308.761 174.289 310.406 C 174.289 312.051 173.635 313.631 172.471 314.794 C 171.308 315.958 169.728 316.612 168.083 316.612 C 166.438 316.612 164.858 315.958 163.695 314.794 C 162.531 313.631 161.877 312.051 161.877 310.406"
        fill="#ee8700"/>
    <path
        id="path_27"
        d="M 196.724 319.846 M 190.518 319.846 C 190.514 318.533 190.927 317.252 191.696 316.188 C 192.466 315.124 193.554 314.332 194.802 313.925 C 196.051 313.519 197.397 313.519 198.646 313.925 C 199.894 314.332 200.982 315.124 201.752 316.188 C 202.521 317.252 202.934 318.533 202.93 319.846 C 202.934 321.159 202.521 322.44 201.752 323.504 C 200.982 324.568 199.894 325.36 198.646 325.767 C 197.397 326.173 196.051 326.173 194.802 325.767 C 193.554 325.36 192.466 324.568 191.696 323.504 C 190.927 322.44 190.514 321.159 190.518 319.846"
        fill="#ee8700"/>
</svg>
