<svg
    xmlns="http://www.w3.org/2000/svg"
    viewBox="0 0 511 511"
    id="vector">
    <path
        id="path"
        d="M 322.117 487.664 C 293.633 510.039 259.648 515.062 227.422 510.422 C 189.57 504.977 152.988 487.484 115.918 474.672 C 87.934 465 58.934 457.988 30.5 460.899 C 42.57 354.454 74.566 242.77 94.953 208.133 C 87.469 172.399 75.515 123.82 73.133 101.383 C 70.727 78.82 72.383 22.051 72.957 4.949 C 73.051 2.187 75.316 0 78.078 0 L 96.211 0 C 99.039 0 101.336 2.297 101.336 5.125 L 101.336 24.797 C 101.336 44.977 109.512 63.25 122.734 76.473 C 136.011 89.754 154.382 97.942 174.664 97.871 C 215.105 97.734 247.488 64.148 247.488 23.711 L 247.488 5.125 C 247.488 2.297 249.785 0 252.613 0 L 270.742 0 C 273.508 0 275.773 2.188 275.867 4.949 C 276.441 22.051 278.094 78.82 275.691 101.383 C 273.336 123.512 261.687 170.797 254.179 206.66 C 276.191 242.68 312.8 372.418 322.117 487.664 Z M 322.117 487.664"
        fill="#ffe1d7"/>
    <path
        id="path_1"
        d="M 254.176 206.66 C 261.688 170.793 273.336 123.512 275.692 101.383 C 278.094 78.817 276.438 22.051 275.864 4.949 C 275.774 2.187 273.509 0 270.743 0 L 252.614 0 C 249.782 0 247.489 2.297 247.489 5.125 L 247.489 23.711 C 247.489 24.469 247.454 25.223 247.43 25.977 C 247.938 50.168 248.297 84.895 246.75 101.383 C 244.672 123.512 234.398 170.793 227.773 206.66 C 247.191 242.68 279.48 372.418 287.695 487.664 C 271.574 502.023 253.457 509.227 235.035 511.324 C 264.945 514.16 295.863 508.285 322.113 487.664 C 312.8 372.422 276.191 242.68 254.175 206.66 Z M 254.176 206.66"
        fill="#ffd2c0"/>
    <path
        id="path_2"
        d="M 94.641 206.66 C 94.746 207.152 94.852 207.648 94.954 208.133 C 74.567 242.77 42.571 354.453 30.501 460.899 C 58.935 457.989 87.931 465.001 115.915 474.672 C 152.985 487.488 189.571 504.977 227.423 510.422 C 259.65 515.063 293.63 510.039 322.114 487.664 C 312.801 372.418 276.192 242.68 254.176 206.66 Z M 94.641 206.66"
        fill="#8cbafa"/>
    <path
        id="path_3"
        d="M 254.176 206.66 L 227.778 206.66 C 247.192 242.68 279.481 372.418 287.696 487.664 C 271.575 502.023 253.462 509.227 235.036 511.324 C 266.661 514.32 297.032 507.367 322.118 487.664 C 315.848 410.148 284.626 256.48 254.177 206.66 Z M 254.176 206.66"
        fill="#5692d8"/>
    <path
        id="path_4"
        d="M 199.203 208.383 C 202.191 221.016 205.883 245.352 209.598 276.906 C 210.047 280.722 213.286 283.527 217.036 283.527 C 217.329 283.527 217.626 283.511 217.923 283.476 C 222.036 282.992 224.982 279.265 224.497 275.152 C 220.872 244.394 217.235 220.222 214.196 206.66 L 199.008 206.66 C 199.008 207.23 199.067 207.805 199.203 208.383 Z M 199.203 208.383"
        fill="#5692d8"/>
    <path
        id="path_5"
        d="M 133.648 283.477 C 133.949 283.512 134.242 283.532 134.535 283.532 C 138.285 283.528 141.527 280.723 141.976 276.907 C 145.55 246.528 149.14 222.692 152.078 209.798 C 152.246 209.052 152.301 208.282 152.238 207.525 L 152.172 206.662 L 137.156 206.662 C 137.156 206.853 137.156 207.041 137.172 207.236 L 137.199 207.591 C 134.195 221.208 130.613 245.107 127.078 275.154 C 126.594 279.267 129.535 282.994 133.648 283.478 Z M 133.648 283.477"
        fill="#5692d8"/>
    <path
        id="path_6"
        d="M 441.891 247.051 C 413.965 247.051 398.008 266.309 381.328 302.899 C 365.187 338.301 339.18 383.43 312.297 383.43 C 296.914 383.43 288.535 370.461 283.817 359.93 C 282.649 357.325 279.825 355.875 277.04 356.485 C 209.091 371.395 201.388 418.93 200.884 436.161 C 200.779 439.638 203.517 442.477 206.993 442.477 L 330.739 442.477 C 334.239 442.477 337.376 440.254 338.477 436.93 C 353.731 390.778 402.434 343.43 422.309 343.43 C 427.387 348.782 427.387 371.805 427.387 383.774 L 427.387 436.297 C 427.387 439.711 430.153 442.477 433.567 442.477 L 446.36 442.477 C 449.774 442.477 452.544 439.711 452.544 436.297 L 452.544 383.774 C 452.544 356.938 473.806 340.254 473.806 311.969 C 473.806 272.438 458.576 247.051 441.892 247.051 Z M 441.891 247.051"
        fill="#ed5176"/>
    <path
        id="path_7"
        d="M 449.102 247.051 C 445.454 247.051 442.016 247.387 438.75 248.039 C 453.078 253.035 465.039 276.941 465.039 311.965 C 465.039 340.254 443.773 356.934 443.773 383.77 L 443.773 436.293 C 443.773 439.156 441.824 441.559 439.183 442.262 C 439.695 442.395 440.226 442.473 440.777 442.473 L 453.57 442.473 C 456.984 442.473 459.754 439.707 459.754 436.293 L 459.754 383.77 C 459.754 356.934 481.016 340.254 481.016 311.965 C 481.016 272.438 465.786 247.051 449.102 247.051 Z M 449.102 247.051"
        fill="#ba365f"/>
    <path
        id="path_8"
        d="M 322.148 65.418 L 299.136 119.586 C 298.128 121.953 298.577 124.688 300.288 126.609 L 384.847 221.527 C 387.492 224.492 392.132 224.492 394.777 221.527 L 479.336 126.609 C 481.047 124.687 481.496 121.953 480.488 119.586 L 457.48 65.418 C 456.437 62.965 454.027 61.371 451.359 61.371 L 328.265 61.371 C 325.601 61.367 323.191 62.965 322.148 65.418 Z M 322.148 65.418"
        fill="#c8e7f7"/>
    <path
        id="path_9"
        d="M 480.555 119.75 L 420.625 119.75 C 420.625 119.699 420.625 119.637 420.609 119.586 L 412.8 65.41 C 412.448 62.969 411.62 61.375 410.718 61.375 L 451.351 61.375 C 454.023 61.375 456.429 62.969 457.484 65.41 L 480.488 119.586 C 480.515 119.637 480.539 119.699 480.554 119.75 Z M 480.555 119.75"
        fill="#add9ea"/>
    <path
        id="path_10"
        d="M 368.906 61.375 C 368.004 61.375 367.176 62.969 366.824 65.41 L 359.015 119.586 C 359.003 119.637 359.003 119.699 359.003 119.75 L 299.069 119.75 C 299.085 119.699 299.108 119.637 299.135 119.586 L 322.139 65.41 C 323.194 62.969 325.6 61.375 328.272 61.375 Z M 368.906 61.375"
        fill="#def6ff"/>
    <path
        id="path_11"
        d="M 479.34 126.609 L 394.785 221.531 C 393.457 223.008 391.637 223.75 389.82 223.75 C 390.433 223.75 391.05 223.008 391.5 221.531 L 420.223 126.609 C 420.801 124.726 420.95 122.082 420.625 119.75 L 480.555 119.75 C 481.469 122.082 481.004 124.727 479.34 126.609 Z M 479.34 126.609"
        fill="#90c7d3"/>
    <path
        id="path_12"
        d="M 420.223 126.609 L 391.5 221.531 C 391.047 223.008 390.434 223.75 389.82 223.75 C 389.191 223.75 388.578 223.008 388.125 221.531 L 359.402 126.609 C 358.839 124.726 358.675 122.082 359 119.75 L 420.621 119.75 C 420.949 122.082 420.801 124.727 420.223 126.609 Z M 420.223 126.609"
        fill="#add9ea"/>
</svg>
